<svg xmlns="http://www.w3.org/2000/svg" width="247.011" height="87.475" viewBox="0 0 247.011 87.475">
  <g id="logo" transform="translate(-214.027 -21.162)">
    <g id="Intaro_logo" data-name="Intaro logo" transform="translate(304.953 48)">
      <g id="INTARO" transform="translate(0 0)">
        <g id="Group_8" data-name="Group 8" transform="translate(0)">
          <g id="Group_1" data-name="Group 1" transform="translate(5.196 8.423) rotate(90)">
            <path id="Path_1" data-name="Path 1" d="M0,0H17.207V5.19H4.373C1.958,5.19,0,2.866,0,0" transform="translate(0 0)" fill="#fff"/>
          </g>
          <g id="Group_2" data-name="Group 2" transform="translate(45.582 8.373)">
            <path id="Path_2" data-name="Path 2" d="M-98.535-73.835l-1.254,1.409H-111.87v15.848H-117.3V-72.426H-128.59v-1.409Z" transform="translate(128.59 73.835)" fill="#fff"/>
          </g>
          <g id="Group_3" data-name="Group 3" transform="translate(69.804 8.373)">
            <path id="Path_3" data-name="Path 3" d="M-53.1-73.835h-1.3l-14.9,17.257h2.6l.312-.36,11.256-13.037L-48.6-62.2h.035l4.722,5.626h5.293Z" transform="translate(69.29 73.835)" fill="#fff"/>
          </g>
          <g id="Group_4" data-name="Group 4" transform="translate(122.033 8.435)">
            <path id="Path_4" data-name="Path 4" d="M-55.82,12.867a16.744,16.744,0,0,0,4.684-.592,10.553,10.553,0,0,0,3.418-1.639,6.93,6.93,0,0,0,2.1-2.5,7.089,7.089,0,0,0,.712-3.16,6.842,6.842,0,0,0-.712-3.11,6.805,6.805,0,0,0-2.1-2.442,10.511,10.511,0,0,0-3.418-1.589,17.469,17.469,0,0,0-4.684-.566,17.955,17.955,0,0,0-4.747.566A10.292,10.292,0,0,0-64-.577a6.708,6.708,0,0,0-2.073,2.442,6.964,6.964,0,0,0-.7,3.11,7.216,7.216,0,0,0,.7,3.16A6.834,6.834,0,0,0-64,10.636a10.327,10.327,0,0,0,3.434,1.639,17.208,17.208,0,0,0,4.747.592m0,.828a31.164,31.164,0,0,1-6.693-.684,21.951,21.951,0,0,1-5.412-1.876,11.494,11.494,0,0,1-3.607-2.772,5.208,5.208,0,0,1-1.313-3.388,5.074,5.074,0,0,1,1.313-3.33,11.213,11.213,0,0,1,3.607-2.7,22.739,22.739,0,0,1,5.412-1.817,31.951,31.951,0,0,1,6.693-.668,31.956,31.956,0,0,1,6.694.668,22.747,22.747,0,0,1,5.412,1.817,11.216,11.216,0,0,1,3.608,2.7,5.076,5.076,0,0,1,1.314,3.33,5.21,5.21,0,0,1-1.314,3.388,11.5,11.5,0,0,1-3.608,2.772,21.959,21.959,0,0,1-5.412,1.876,31.17,31.17,0,0,1-6.694.684" transform="translate(72.846 3.543)" fill="#fff"/>
          </g>
          <g id="Group_5" data-name="Group 5" transform="translate(12.832 8.373)">
            <path id="Path_5" data-name="Path 5" d="M-73.468-73.835V-59.02L-90.686-73.747h-5.191v17.169h5.19V-71.166l17.144,14.587.075-.006v.006h5.434V-73.835Z" transform="translate(95.876 73.835)" fill="#fff"/>
          </g>
          <g id="Group_6" data-name="Group 6" transform="translate(96.223 8.373)">
            <path id="Path_6" data-name="Path 6" d="M-42.009-27.389c4.055-.117,7.375-2.041,7.375-4.4,0-2.431-3.43-4.4-7.662-4.4H-54.823l1.167,1.409h5.874c3.344.127,6.012.975,7.216,2.133a1.8,1.8,0,0,1,.64,1.272c0,.946-1,1.8-2.6,2.422a15.681,15.681,0,0,1-3.894.872c-.474.051-.967.08-1.469.1l7.68,9.049h5.364" transform="translate(54.823 36.188)" fill="#fff"/>
          </g>
          <g id="Group_7" data-name="Group 7" transform="translate(0 6.655) rotate(-90)">
            <path id="Path_7" data-name="Path 7" d="M0,0H6.655V5.2H5.2A5.2,5.2,0,0,1,0,0" transform="translate(0)" fill="#fff"/>
          </g>
        </g>
      </g>
    </g>
    <text id="Trophy" transform="translate(302.887 101.637)" fill="#fff" font-size="26" font-family="Montserrat-Regular, Montserrat"><tspan x="0" y="0">TROPHY</tspan></text>
    <g id="LOGO-2" data-name="LOGO" transform="translate(215.777 22.912)">
      <path id="Path_15" data-name="Path 15" d="M216.664,408.213c-3.711-4.839-7.125-8.318-7.125-11.679,0-2.862-.026-5.305-.058-7.224a4.664,4.664,0,0,1,4.637-4.76l20.914-.116,20.914.116a4.663,4.663,0,0,1,4.636,4.76c-.032,1.918-.058,4.362-.058,7.224,0,3.361-3.414,6.84-7.125,11.679a31.156,31.156,0,0,0-36.735,0Z" transform="translate(-203.857 -384.435)" fill="none" stroke="#fff" stroke-linecap="round" stroke-linejoin="round" stroke-width="3.5" fill-rule="evenodd"/>
      <path id="Path_16" data-name="Path 16" d="M259.047,469.853a31.153,31.153,0,0,1-39.334,0s10.555-7.62,10.555-24.218c0-11.7-4.838-19.39-9.256-25.149a31.155,31.155,0,0,1,36.735,0c-4.418,5.76-9.256,13.446-9.256,25.149C248.491,462.233,259.047,469.853,259.047,469.853Z" transform="translate(-208.205 -396.707)" fill="none" stroke="#fff" stroke-linecap="round" stroke-linejoin="round" stroke-width="3.5" fill-rule="evenodd"/>
      <path id="Path_17" data-name="Path 17" d="M211.21,474.279a31.164,31.164,0,0,1,1.3-49.367c4.418,5.76,9.256,13.446,9.256,25.149C221.765,466.659,211.21,474.279,211.21,474.279Zm38.034-49.367a31.164,31.164,0,0,1,1.3,49.367s-10.556-7.62-10.556-24.218C239.988,438.358,244.826,430.672,249.244,424.912Z" transform="translate(-199.702 -401.133)" fill="none" stroke="#fff" stroke-linecap="round" stroke-linejoin="round" stroke-width="3.5" fill-rule="evenodd"/>
    </g>
  </g>
</svg>
