<svg xmlns="http://www.w3.org/2000/svg" width="172.63" height="155.332" viewBox="0 0 172.63 155.332">
  <g id="Group_9" data-name="Group 9" transform="translate(-855.832 -28.47)">
    <g id="Intaro_logo" data-name="Intaro logo" transform="translate(855.832 119.258)">
      <g id="INTARO" transform="translate(0 0)">
        <g id="Group_8" data-name="Group 8" transform="translate(0)">
          <g id="Group_1" data-name="Group 1" transform="translate(5.747 9.316) rotate(90)">
            <path id="Path_1" data-name="Path 1" d="M0,0H19.031V5.74H4.837C2.165,5.74,0,3.17,0,0" transform="translate(0 0)" fill="#fff"/>
          </g>
          <g id="Group_2" data-name="Group 2" transform="translate(50.414 9.261)">
            <path id="Path_2" data-name="Path 2" d="M-95.35-73.835l-1.387,1.558H-110.1v17.528h-6.01V-72.277H-128.59v-1.558Z" transform="translate(128.59 73.835)" fill="#fff"/>
          </g>
          <g id="Group_3" data-name="Group 3" transform="translate(77.203 9.261)">
            <path id="Path_3" data-name="Path 3" d="M-51.379-73.835h-1.437L-69.29-54.749h2.874l.345-.4,12.449-14.419,7.217,8.6h.038l5.223,6.222h5.854Z" transform="translate(69.29 73.835)" fill="#fff"/>
          </g>
          <g id="Group_4" data-name="Group 4" transform="translate(134.968 9.329)">
            <path id="Path_4" data-name="Path 4" d="M-54.015,14.606a18.518,18.518,0,0,0,5.181-.654,11.671,11.671,0,0,0,3.78-1.813,7.665,7.665,0,0,0,2.328-2.766,7.841,7.841,0,0,0,.787-3.5,7.568,7.568,0,0,0-.787-3.439,7.527,7.527,0,0,0-2.328-2.7,11.625,11.625,0,0,0-3.78-1.757,19.321,19.321,0,0,0-5.181-.626,19.859,19.859,0,0,0-5.25.626,11.383,11.383,0,0,0-3.8,1.757,7.419,7.419,0,0,0-2.292,2.7,7.7,7.7,0,0,0-.77,3.439,7.981,7.981,0,0,0,.77,3.5,7.559,7.559,0,0,0,2.292,2.766,11.422,11.422,0,0,0,3.8,1.813,19.033,19.033,0,0,0,5.25.654m0,.916a34.467,34.467,0,0,1-7.4-.757A24.279,24.279,0,0,1-67.4,12.69a12.713,12.713,0,0,1-3.99-3.065,5.76,5.76,0,0,1-1.453-3.748A5.612,5.612,0,0,1-71.393,2.2,12.4,12.4,0,0,1-67.4-.8,25.15,25.15,0,0,1-61.418-2.8a35.337,35.337,0,0,1,7.4-.738,35.344,35.344,0,0,1,7.4.738A25.158,25.158,0,0,1-40.627-.8,12.405,12.405,0,0,1-36.637,2.2a5.614,5.614,0,0,1,1.453,3.682,5.762,5.762,0,0,1-1.453,3.748,12.717,12.717,0,0,1-3.99,3.065,24.286,24.286,0,0,1-5.985,2.075,34.473,34.473,0,0,1-7.4.757" transform="translate(72.846 3.543)" fill="#fff"/>
          </g>
          <g id="Group_5" data-name="Group 5" transform="translate(14.193 9.261)">
            <path id="Path_5" data-name="Path 5" d="M-71.093-73.835V-57.45L-90.136-73.738h-5.741v18.989h5.74V-70.883l18.961,16.134.083-.006v.006h6.01V-73.835Z" transform="translate(95.876 73.835)" fill="#fff"/>
          </g>
          <g id="Group_6" data-name="Group 6" transform="translate(106.422 9.26)">
            <path id="Path_6" data-name="Path 6" d="M-40.651-26.456c4.485-.129,8.156-2.257,8.156-4.863,0-2.689-3.794-4.869-8.474-4.869H-54.823l1.291,1.558h6.5c3.7.14,6.649,1.078,7.98,2.359a1.985,1.985,0,0,1,.708,1.407c0,1.047-1.1,1.994-2.88,2.679a17.343,17.343,0,0,1-4.306.964c-.524.056-1.07.089-1.624.111L-38.663-17.1h5.932" transform="translate(54.823 36.188)" fill="#fff"/>
          </g>
          <g id="Group_7" data-name="Group 7" transform="translate(0 7.36) rotate(-90)">
            <path id="Path_7" data-name="Path 7" d="M0,0H7.36V5.754H5.754A5.754,5.754,0,0,1,0,0" transform="translate(0)" fill="#fff"/>
          </g>
        </g>
      </g>
    </g>
    <text id="Trophy" transform="translate(892.438 177.802)" fill="#fff" font-size="23" font-family="Montserrat-Light, Montserrat" font-weight="300"><tspan x="0" y="0">TROPHY</tspan></text>
    <g id="LOGO" transform="translate(910.089 30.22)">
      <path id="Path_15" data-name="Path 15" d="M216.868,408.887c-3.816-4.976-7.327-8.553-7.327-12.009,0-2.943-.027-5.456-.06-7.429a4.8,4.8,0,0,1,4.768-4.9l21.506-.119,21.507.119a4.8,4.8,0,0,1,4.768,4.9c-.033,1.973-.06,4.486-.06,7.429,0,3.456-3.51,7.034-7.326,12.009a32.038,32.038,0,0,0-37.775,0Z" transform="translate(-203.698 -384.435)" fill="none" stroke="#fff" stroke-linecap="round" stroke-linejoin="round" stroke-width="3.5" fill-rule="evenodd"/>
      <path id="Path_16" data-name="Path 16" d="M260.161,471.422a32.035,32.035,0,0,1-40.448,0s10.854-7.836,10.854-24.9c0-12.035-4.975-19.939-9.518-25.862a32.038,32.038,0,0,1,37.775,0c-4.543,5.923-9.518,13.827-9.518,25.862C249.306,463.585,260.161,471.422,260.161,471.422Z" transform="translate(-207.879 -396.203)" fill="none" stroke="#fff" stroke-linecap="round" stroke-linejoin="round" stroke-width="3.5" fill-rule="evenodd"/>
      <path id="Path_17" data-name="Path 17" d="M211.536,475.678a32.047,32.047,0,0,1,1.336-50.766c4.543,5.923,9.518,13.827,9.518,25.862C222.39,467.842,211.536,475.678,211.536,475.678Zm39.112-50.766a32.047,32.047,0,0,1,1.336,50.766s-10.855-7.836-10.855-24.9C241.129,438.739,246.1,430.835,250.648,424.912Z" transform="translate(-199.702 -400.46)" fill="none" stroke="#fff" stroke-linecap="round" stroke-linejoin="round" stroke-width="3.5" fill-rule="evenodd"/>
    </g>
  </g>
</svg>
