<svg xmlns="http://www.w3.org/2000/svg" width="109.754" height="83.526" viewBox="0 0 109.754 83.526">
  <g id="fizinova" transform="translate(-0.001 -0.001)">
    <g id="Group_48" data-name="Group 48" transform="translate(29.949 0.001)">
      <path id="Path_1285" data-name="Path 1285" d="M369.85,139.29a21.316,21.316,0,0,1-2.288.787,4.167,4.167,0,0,1-.284-.386c-.728-1.285-1.457-2.57-2.171-3.862a11.95,11.95,0,0,1-1.347-3.917,3.093,3.093,0,0,1,1.3-3.112,2.017,2.017,0,0,1,2.163-.185,1.513,1.513,0,0,1,.832.835c.2.521.421,1.038.59,1.569a24.132,24.132,0,0,1,1.076,5.59c.043.6.095,1.2.131,1.807C369.864,138.684,369.85,138.951,369.85,139.29Z" transform="translate(-344.456 -111.02)" fill="#fff"/>
      <path id="Path_1286" data-name="Path 1286" d="M489.09,153.664a1.884,1.884,0,0,1-.283.21c-.607.284-1.223.553-1.828.843a.827.827,0,0,1-.706.005,28.045,28.045,0,0,1-4.462-2.163,7.275,7.275,0,0,1-1.347-1.1,3.681,3.681,0,0,1-.6-4.121,2.524,2.524,0,0,1,1.377-1.311,2.266,2.266,0,0,1,2.846,1.249,1.02,1.02,0,0,1,.114.314,2.123,2.123,0,0,0,.74,1.237c.915.952,1.826,1.908,2.711,2.886.434.48.812,1.011,1.205,1.526A3.157,3.157,0,0,1,489.09,153.664Z" transform="translate(-444.575 -126.147)" fill="#fff"/>
      <path id="Path_1287" data-name="Path 1287" d="M230.223,148.1a9.9,9.9,0,0,1-1.684.451c-.931.219-.932.2-1.721-.335a34.048,34.048,0,0,1-2.784-1.983,11.032,11.032,0,0,1-1.653-1.661,4.537,4.537,0,0,1-.939-1.981A3.688,3.688,0,0,1,221.87,140a2.355,2.355,0,0,1,.21-.252c.073.221.123.382.18.54.16.444.373.515.748.214a3.347,3.347,0,0,0,.545-.586c.188-.249.341-.525.515-.785.073-.108.161-.206.26-.329a2.7,2.7,0,0,1,1.717,1.507,2.976,2.976,0,0,1,.283.889,3.323,3.323,0,0,0,.609,1.468c.72,1.051,1.431,2.109,2.116,3.185.36.564.657,1.168.977,1.756a4.674,4.674,0,0,1,.195.492Z" transform="translate(-221.373 -120.022)" fill="#fff"/>
      <path id="Path_1288" data-name="Path 1288" d="M384.51,3.832a7.036,7.036,0,0,1,.563-2.428,2.769,2.769,0,0,1,.66-.917,1.668,1.668,0,0,1,1.982-.279,2.488,2.488,0,0,1,1.35,2.1,3.011,3.011,0,0,1-.231,1.507,4.3,4.3,0,0,1-1.628,1.991,2.689,2.689,0,0,1-.782.369,1.253,1.253,0,0,1-1.6-.74,3.98,3.98,0,0,1-.315-1.6Z" transform="translate(-362.44 -0.001)" fill="#fff"/>
      <path id="Path_1289" data-name="Path 1289" d="M367.8,49.322c.1-.9-.034-1.794.038-2.7a1.7,1.7,0,0,1,.3.026,2.771,2.771,0,0,1,1.458,1.016,3.663,3.663,0,0,1,.781,2.1,4.367,4.367,0,0,1-.329,2.031,3.971,3.971,0,0,1-.662,1,2.465,2.465,0,0,1-3.586.1c-.095-.095-.188-.191-.275-.292a1.5,1.5,0,0,1-.119-.2,2.608,2.608,0,0,1,.153-.342c.414-.663.851-1.312,1.247-1.985a1.894,1.894,0,0,1,.993-.758Z" transform="translate(-345.924 -40.313)" fill="#fff"/>
      <path id="Path_1290" data-name="Path 1290" d="M545.208,68.037A4.931,4.931,0,0,1,546.445,65a2.772,2.772,0,0,1,.568-.465,1.514,1.514,0,0,1,1.917.154,2.81,2.81,0,0,1,.553,3.6,3.376,3.376,0,0,1-2.389,1.579,1.521,1.521,0,0,1-1.883-1.489c-.007-.111,0-.223,0-.336Z" transform="translate(-501.398 -55.566)" fill="#fff"/>
      <path id="Path_1291" data-name="Path 1291" d="M291.57,123.689a4.74,4.74,0,0,1,.062-.617A1.331,1.331,0,0,1,293,121.93a3.2,3.2,0,0,1,2.464,1.177,2.779,2.779,0,0,1,.214,3.527,2.945,2.945,0,0,1-.663.652,1.385,1.385,0,0,1-1.523.089,2.327,2.327,0,0,1-.731-.572,4.932,4.932,0,0,1-1.192-3.114Z" transform="translate(-282.073 -105.435)" fill="#fff"/>
      <path id="Path_1292" data-name="Path 1292" d="M391.16,237.788c.147-.25.262-.437.368-.628a.383.383,0,0,0-.053-.491.353.353,0,0,0-.425-.1l-.4.123c-.02-.08-.06-.143-.046-.193a5.389,5.389,0,0,0,.034-2.132c-.122-.84-.269-1.676-.418-2.512a11.564,11.564,0,0,1-.23-2.6,2.019,2.019,0,0,1,.222-.82,9.281,9.281,0,0,1,2.165.772,4.378,4.378,0,0,1,.05.494,46.771,46.771,0,0,1-.246,5.49,4.263,4.263,0,0,0-.03.6,1.962,1.962,0,0,0,1.361,1.88,6.551,6.551,0,0,0,.783.169,2.866,2.866,0,0,1,.322.078c.091.031.1.233.027.288a.213.213,0,0,1-.055.038,2.653,2.653,0,0,1-2.388-.11,1.713,1.713,0,0,0-1.044-.356Z" transform="translate(-367.173 -197.535)" fill="#fff"/>
      <path id="Path_1293" data-name="Path 1293" d="M345.714,217.55a19.616,19.616,0,0,1,1.664,1.864c-.1.218-.181.422-.285.614-.77,1.414-1.549,2.825-2.317,4.24a9.3,9.3,0,0,0-.5,1.024A1.527,1.527,0,0,0,345,227.4a6.009,6.009,0,0,0,.675.292,2.38,2.38,0,0,1,.295.145.142.142,0,0,1-.022.225,1.786,1.786,0,0,1-1.92-.4,8.709,8.709,0,0,0-1.168-1.2c-.03-.024-.035-.08-.07-.166.119-.1.246-.214.382-.317a.487.487,0,0,0,.21-.464.394.394,0,0,0-.319-.377c-.143-.037-.291-.061-.46-.095a.854.854,0,0,1,.085-.221,4.763,4.763,0,0,0,.86-1.732c.283-.943.538-1.893.8-2.84a8.291,8.291,0,0,1,.679-1.818,2.536,2.536,0,0,1,.686-.885Z" transform="translate(-326.2 -188.119)" fill="#fff"/>
      <path id="Path_1294" data-name="Path 1294" d="M514,232.213l.931-.28c.138-.515.123-.574-.206-.816-.124-.092-.252-.179-.361-.256-.005-.074-.028-.129-.009-.158A3.962,3.962,0,0,0,514.9,229a13.756,13.756,0,0,1,.643-3.01,8.119,8.119,0,0,1,.973-1.993,2.341,2.341,0,0,1,1.086.271,3.348,3.348,0,0,1,.971.391c.057.275-.11.449-.207.643-.664,1.318-1.339,2.63-2,3.95-.239.479-.461.97-.653,1.469a2.6,2.6,0,0,0,.227,2.441,1.944,1.944,0,0,0,1.369.979c.354.058.507.176.452.284-.1.2-.295.173-.469.179-.446.014-.894.02-1.341.027a.778.778,0,0,1-.791-.51,5.963,5.963,0,0,0-1.161-1.9Z" transform="translate(-474.412 -193.683)" fill="#fff"/>
      <path id="Path_1295" data-name="Path 1295" d="M441.84,240.3a2.043,2.043,0,0,1-.283.28c-.5.333-1,.674-1.525.975s-1.077.549-1.6.85c-.5.288-1,.594-1.476.928a2.649,2.649,0,0,0-1,1.395,1.105,1.105,0,0,0,.441,1.358,3.258,3.258,0,0,0,.655.329c.2.084.419.138.606.2.065.172-.005.269-.126.277-.49.035-.982.053-1.473.073a.715.715,0,0,1-.657-.388c-.024-.038-.046-.077-.066-.116-.131-.26-.248-.528-.4-.778s-.321-.478-.48-.709c.111-.2.287-.12.432-.134.161-.015.322-.022.386-.2a.483.483,0,0,0-.1-.559c-.162-.15-.338-.284-.549-.459a2.218,2.218,0,0,1,.271-.21,4.134,4.134,0,0,0,1-.786l2.852-2.938a8.672,8.672,0,0,1,1.868-1.452,2.889,2.889,0,0,1,.686.973,3.714,3.714,0,0,1,.532,1.1Z" transform="translate(-405.632 -206.001)" fill="#fff"/>
      <path id="Path_1296" data-name="Path 1296" d="M511.919,97.83a3.369,3.369,0,0,1,.645,2.039,3.653,3.653,0,0,1-.613,2.025,2.636,2.636,0,0,1-1.68,1.131,1.657,1.657,0,0,1-.924-.053,2.627,2.627,0,0,1-1.4-1.092,3.671,3.671,0,0,1-.555-2.5c.038-.3.142-.386.441-.367a6.725,6.725,0,0,0,.735.051,1.558,1.558,0,0,1,1.214.464,2.8,2.8,0,0,0,.246.185,2.684,2.684,0,0,0,.354-.269c.4-.423.782-.86,1.177-1.287.1-.108.221-.2.363-.327Z" transform="translate(-468.669 -84.595)" fill="#fff"/>
      <path id="Path_1297" data-name="Path 1297" d="M240.27,231.28l.641-.02a.39.39,0,0,0,.4-.3.426.426,0,0,0-.112-.49c-.181-.161-.365-.321-.548-.48a.726.726,0,0,1,.093-.208,2.593,2.593,0,0,0,.617-1.174q.252-.871.536-1.73a8.814,8.814,0,0,1,1.59-2.859,4.008,4.008,0,0,1,.273-.295.385.385,0,0,1,.119-.054,8.854,8.854,0,0,1,1.853,1.17c0,.221-.168.352-.284.509q-1.431,1.948-2.867,3.892c-.158.216-.306.442-.451.667a2.6,2.6,0,0,0-.418,1.6,4.489,4.489,0,0,0,.469,1.737,1.364,1.364,0,0,0,.86.794.543.543,0,0,1,.165.106c.012.009.011.038.023.081-.045.027-.1.092-.146.084-.461-.084-.921-.176-1.38-.272a.488.488,0,0,1-.406-.4,6.922,6.922,0,0,0-.9-2.012,2.106,2.106,0,0,1-.122-.345Z" transform="translate(-237.713 -193.411)" fill="#fff"/>
      <path id="Path_1298" data-name="Path 1298" d="M368.487,93.5a12.665,12.665,0,0,0-.38,4.628,2.164,2.164,0,0,1-.353-.088,2.426,2.426,0,0,0-2.949.507c-.106.1-.227.191-.356.3a20.426,20.426,0,0,1-.3-5.548c.137-.046.2.072.28.135.158.123.3.267.469.376a2.607,2.607,0,0,0,3.128-.089c.124-.085.233-.192.349-.288l.118.069Z" transform="translate(-344.761 -80.663)" fill="#fff"/>
      <path id="Path_1299" data-name="Path 1299" d="M484.274,192c-.652-.253-1.276-.491-1.9-.737a.425.425,0,0,1-.281-.348c-.019-.133-.057-.264-.07-.4q-.231-2.37-.455-4.742c-.014-.149,0-.3,0-.5.1.053.169.068.206.11a8.3,8.3,0,0,0,2.749,2.106c.241.119.479.242.718.363a.38.38,0,0,1,.222.441,4.386,4.386,0,0,1-.091.46c-.207.755-.41,1.51-.634,2.261a2.45,2.45,0,0,1-.467.977Z" transform="translate(-446.363 -160.214)" fill="#fff"/>
      <path id="Path_1300" data-name="Path 1300" d="M346.636,58.242a35.336,35.336,0,0,1-2.564,3.968,6.62,6.62,0,0,1-1.672-1.395,44.22,44.22,0,0,1,2.38-4.585,4.294,4.294,0,0,1,.979.969,5.529,5.529,0,0,1,.875,1.044Z" transform="translate(-326.027 -48.623)" fill="#fff"/>
      <path id="Path_1301" data-name="Path 1301" d="M256.7,84.69c1.514.361,2.972.846,4.467,1.285a4.579,4.579,0,0,1-.4,1.434c-.141.445-.317.878-.486,1.338a1.674,1.674,0,0,1-.417-.034,21.074,21.074,0,0,1-2.886-1.26.643.643,0,0,1-.4-.57c-.009-.67,0-1.339,0-2.009,0-.037.045-.073.115-.184Z" transform="translate(-251.813 -73.233)" fill="#fff"/>
      <path id="Path_1302" data-name="Path 1302" d="M487.87,114.819a17.774,17.774,0,0,1,2.253-4.949c.126,0,.124.1.133.183.03.333.041.668.089,1a3.464,3.464,0,0,0,1.14,2.073,2.489,2.489,0,0,0,.92.534c.1.034.2.074.321.12-.234.4-.475.745-.651,1.123-.168.36-.269.752-.419,1.186-.08-.119-.146-.2-.193-.29a2.559,2.559,0,0,0-.81-.878,2.3,2.3,0,0,0-2.224-.327c-.168.058-.33.134-.557.227Z" transform="translate(-451.817 -95.006)" fill="#fff"/>
      <path id="Path_1303" data-name="Path 1303" d="M247.865,108.619a5.885,5.885,0,0,0-1.728,2.411,9.539,9.539,0,0,0-.8-.859,9.4,9.4,0,0,0-.979-.653c.018-.1.045-.225.06-.352.035-.287.084-.575.093-.863a7.458,7.458,0,0,1,.461-2.359.873.873,0,0,1,.733-.6.27.27,0,0,1,.322.179,3.72,3.72,0,0,1,.142.584,4.13,4.13,0,0,0,.491,1.384,3.049,3.049,0,0,0,1.2,1.132Z" transform="translate(-241.25 -91.087)" fill="#fff"/>
      <path id="Path_1304" data-name="Path 1304" d="M498.85,85.16a8.322,8.322,0,0,1-2.972-.283,5.9,5.9,0,0,1-.258-2.432.976.976,0,0,1,.242-.078q1.605-.1,3.213-.187a.627.627,0,0,1,.189.061.614.614,0,0,1,.043.193c-.1.708-.195,1.415-.3,2.121C498.974,84.751,498.907,84.94,498.85,85.16Z" transform="translate(-458.484 -71.062)" fill="#fff"/>
      <path id="Path_1305" data-name="Path 1305" d="M538.545,129.076a34.748,34.748,0,0,1-1.315-3.927c.072-.081.16-.177.245-.276a6.644,6.644,0,0,0,.594-.721,1.288,1.288,0,0,1,1.14-.611,1.561,1.561,0,0,1,.135.3q.27,1.244.524,2.491a1.076,1.076,0,0,1-.095.781c-.358.618-.714,1.238-1.074,1.855-.019.034-.069.049-.153.106Z" transform="translate(-494.499 -106.827)" fill="#fff"/>
      <path id="Path_1306" data-name="Path 1306" d="M337.9,116.918c-.288.1-.513-.032-.8-.089a2.608,2.608,0,0,1-.137-.482c-.111-1.312-.21-2.625-.31-3.937a1.246,1.246,0,0,1,.027-.25,5.11,5.11,0,0,1,2.074-.23,4.718,4.718,0,0,1-.054,1.774c-.061.35-.168.694-.253,1.04-.143.584-.283,1.169-.427,1.753-.037.147-.085.292-.124.422Z" transform="translate(-321.064 -96.771)" fill="#fff"/>
      <path id="Path_1307" data-name="Path 1307" d="M468.681,94.76a17.629,17.629,0,0,1,1.356,1.561,14.85,14.85,0,0,1-2.254,3.413,1.263,1.263,0,0,1-.772-.4,33.556,33.556,0,0,1,1.468-4.187c.047-.115.116-.222.2-.382Z" transform="translate(-433.779 -81.94)" fill="#fff"/>
      <path id="Path_1308" data-name="Path 1308" d="M398.01,112.528a20.7,20.7,0,0,1,1.1-1.8,1.506,1.506,0,0,1,.326.229,7.155,7.155,0,0,1,.584.814c.193.326.348.676.515,1.017.265.541.529,1.084.808,1.656-.091.271-.346.414-.578.607a.944.944,0,0,1-.249-.092,18.537,18.537,0,0,1-2.415-2.225,1.163,1.163,0,0,1-.095-.21Z" transform="translate(-374.114 -95.75)" fill="#fff"/>
      <path id="Path_1309" data-name="Path 1309" d="M368.162,176.936c-.065.024-.108.06-.146.053-.572-.088-1.145-.181-1.717-.272a.561.561,0,0,1-.48-.486,14.612,14.612,0,0,1-.41-4.382c0-.037.037-.07.081-.149a1.03,1.03,0,0,1,.15.2,34.18,34.18,0,0,0,2.235,4.264,5.687,5.687,0,0,1,.283.53.611.611,0,0,1,.005.238Z" transform="translate(-345.9 -148.472)" fill="#fff"/>
      <path id="Path_1310" data-name="Path 1310" d="M259.679,108.08c.134.049.28.092.418.154a23.508,23.508,0,0,0,2.653,1.1,1.008,1.008,0,0,1,.686.59.357.357,0,0,1-.091.479,2.063,2.063,0,0,1-2.431.172,2.937,2.937,0,0,1-1.324-2.357c0-.034.043-.07.088-.138Z" transform="translate(-254.419 -93.458)" fill="#fff"/>
      <path id="Path_1311" data-name="Path 1311" d="M364.259,44.181c.02.775.039,1.554.06,2.332a.482.482,0,0,1-.242.446c-.188.118-.373.238-.6.379a6.353,6.353,0,0,1-.974-1c-.3-.323-.591-.664-.877-.988a2.461,2.461,0,0,1,1.9-1.339,1.007,1.007,0,0,1,.729.168Z" transform="translate(-342.655 -38.052)" fill="#fff"/>
      <path id="Path_1312" data-name="Path 1312" d="M561.706,137.325a1.35,1.35,0,0,1-.057-.264c.023-.559.068-1.116.07-1.675a1.447,1.447,0,0,1,.359-.984c.264-.3.534-.6.8-.9l.984-1.111a1.916,1.916,0,0,1,.616.7A14.618,14.618,0,0,1,561.706,137.325Z" transform="translate(-515.614 -114.48)" fill="#fff"/>
      <path id="Path_1313" data-name="Path 1313" d="M287.214,95.851a3.476,3.476,0,0,1,1.771,2.505c-.062.037-.137.085-.216.126-.611.317-1.223.632-1.859.959l-.679-.92a13.1,13.1,0,0,1,.984-2.672Z" transform="translate(-277.456 -82.883)" fill="#fff"/>
      <path id="Path_1314" data-name="Path 1314" d="M522.9,86.061l-.647-.469a1.988,1.988,0,0,1,.031-.955,13.93,13.93,0,0,1,.4-2.129.825.825,0,0,1,.689.064,3,3,0,0,1,1.3,1.027.369.369,0,0,1,0,.545C524.1,84.772,523.523,85.39,522.9,86.061Z" transform="translate(-481.51 -71.299)" fill="#fff"/>
      <path id="Path_1315" data-name="Path 1315" d="M534.06,207.242l2.192-.982a1.034,1.034,0,0,1,.352.729,2.607,2.607,0,0,1-.008,1.33,1.193,1.193,0,0,1-.494.728,15.3,15.3,0,0,1-2.048-.72,1.457,1.457,0,0,1,.007-1.084Z" transform="translate(-491.665 -178.356)" fill="#fff"/>
      <path id="Path_1316" data-name="Path 1316" d="M268.6,212.162c.03-.359.053-.645.074-.909a9.483,9.483,0,0,1,2.422-.563,2.734,2.734,0,0,1-.345,2.472.3.3,0,0,1-.413.1c-.138-.072-.269-.16-.4-.244C269.505,212.742,269.073,212.466,268.6,212.162Z" transform="translate(-262.211 -182.187)" fill="#fff"/>
      <path id="Path_1317" data-name="Path 1317" d="M392.24,213.427c.05-.4.091-.726.137-1.1.67-.292,1.376-.488,2.051-.748.072.076.149.118.158.172a4.83,4.83,0,0,1-.1,2.316.782.782,0,0,1-.1.149,10.472,10.472,0,0,1-2.138-.789Z" transform="translate(-369.124 -182.956)" fill="#fff"/>
      <path id="Path_1318" data-name="Path 1318" d="M237.012,95.02a2.052,2.052,0,0,1,.21.238c.143.226.256.475.419.685a1.218,1.218,0,0,1,.146,1.312,5.27,5.27,0,0,0-.357,2.032,4.541,4.541,0,0,1-.05.5,2.021,2.021,0,0,1-.863-.782.53.53,0,0,1-.054-.322c.123-1.063.25-2.127.388-3.189a2.728,2.728,0,0,1,.161-.475Z" transform="translate(-234.417 -82.165)" fill="#fff"/>
      <path id="Path_1319" data-name="Path 1319" d="M483.959,234.047a2.6,2.6,0,0,1-.225-.288c-.261-.44-.5-.9-.772-1.324a.683.683,0,0,1,.034-.912c.057-.066.107-.139.177-.233.149.042.3.076.438.127.48.177.959.353,1.434.544a.326.326,0,0,1,.234.421,3.189,3.189,0,0,1-.771,1.384.749.749,0,0,1-.548.28Z" transform="translate(-447.436 -200)" fill="#fff"/>
      <path id="Path_1320" data-name="Path 1320" d="M369.248,213.142a10.268,10.268,0,0,1-1.648-1.833c.043-.127.085-.275.143-.417a1.6,1.6,0,0,1,.16-.242,14.335,14.335,0,0,1,2.117.4.742.742,0,0,1,.037.689A3.4,3.4,0,0,1,369.248,213.142Z" transform="translate(-347.818 -182.152)" fill="#fff"/>
      <path id="Path_1321" data-name="Path 1321" d="M242.515,87.069a20.27,20.27,0,0,1-1.065-1.8,1.6,1.6,0,0,1,1.725-.928,1.676,1.676,0,0,1,.064.306c.011.582,0,1.163.023,1.744a.492.492,0,0,1-.415.583C242.76,86.989,242.677,87.02,242.515,87.069Z" transform="translate(-238.734 -72.908)" fill="#fff"/>
      <path id="Path_1322" data-name="Path 1322" d="M336.915,95.357a3.943,3.943,0,0,1,.534-2.317,1.058,1.058,0,0,1,.227.107c.417.333.833.667,1.239,1.012a.712.712,0,0,1,.057.954.423.423,0,0,1-.233.115,17.031,17.031,0,0,1-1.824.13Z" transform="translate(-321.276 -80.453)" fill="#fff"/>
      <path id="Path_1323" data-name="Path 1323" d="M480.71,85.359a2.557,2.557,0,0,1,1.579-1.009,2.5,2.5,0,0,1,.127.4c.072.528.134,1.057.192,1.587.054.484.05.484-.465.718a7.275,7.275,0,0,1-1.431-1.7Z" transform="translate(-445.625 -72.939)" fill="#fff"/>
      <path id="Path_1324" data-name="Path 1324" d="M548.34,153.8c.369-.647.752-1.32,1.14-1.993a.208.208,0,0,1,.279-.11.365.365,0,0,1,.169.254c0,.712-.007,1.423-.057,2.132a.524.524,0,0,1-.736.445,1.179,1.179,0,0,1-.8-.731Z" transform="translate(-504.106 -131.152)" fill="#fff"/>
      <path id="Path_1325" data-name="Path 1325" d="M341.392,155.96a2.269,2.269,0,0,1,.231,2.355l-.848.11a4.444,4.444,0,0,1-.162-.529c-.041-.239-.043-.484-.074-.726A1.016,1.016,0,0,1,341.392,155.96Z" transform="translate(-324.406 -134.861)" fill="#fff"/>
      <path id="Path_1326" data-name="Path 1326" d="M580.393,113a3.253,3.253,0,0,1-.275,1.9,1.065,1.065,0,0,1-.7-.146.544.544,0,0,1-.253-.288,2.207,2.207,0,0,1-.112-1.12,1.052,1.052,0,0,1,.16-.363.355.355,0,0,1,.4-.183c.258.055.513.131.786.2Z" transform="translate(-530.64 -97.525)" fill="#fff"/>
      <path id="Path_1327" data-name="Path 1327" d="M426.612,142.668a1.319,1.319,0,0,1,.882.226c.281.173.336.51.464.79a.556.556,0,0,1-.072.509,2.177,2.177,0,0,1-.377.678,3.026,3.026,0,0,1-1.131-1.112.607.607,0,0,1-.03-.379C426.411,143.147,426.515,142.927,426.612,142.668Z" transform="translate(-398.603 -123.36)" fill="#fff"/>
      <path id="Path_1328" data-name="Path 1328" d="M466.487,139.548a2.087,2.087,0,0,1-.614.549.444.444,0,0,1-.668-.2,3.438,3.438,0,0,1-.345-1.71,1.807,1.807,0,0,1,.281-.092c.574-.091.622-.066.892.44.135.254.265.513.391.771a1.48,1.48,0,0,1,.062.238Z" transform="translate(-431.914 -119.38)" fill="#fff"/>
      <path id="Path_1329" data-name="Path 1329" d="M228.931,138a1.438,1.438,0,0,1-.271-.924.254.254,0,0,1,.06-.184c.225-.244.451-.487.694-.71a.428.428,0,0,1,.306-.087,4.37,4.37,0,0,1,.565.141A3.03,3.03,0,0,1,228.931,138Z" transform="translate(-227.674 -117.681)" fill="#fff"/>
      <path id="Path_1330" data-name="Path 1330" d="M253.853,263.9a1.086,1.086,0,0,1-.432-.492,3.9,3.9,0,0,1-.4-1.343,2.5,2.5,0,0,1,.459-1.839c.344-.463.647-.956,1-1.483a.69.69,0,0,1-.111.5c-.207.471-.421.939-.625,1.412a4.123,4.123,0,0,0-.361,1.761,2.059,2.059,0,0,0,.384,1.261,1.129,1.129,0,0,1,.087.223Z" transform="translate(-248.725 -223.736)" fill="#fff"/>
      <path id="Path_1331" data-name="Path 1331" d="M395.448,106.883a3.566,3.566,0,0,1,.058-2.048,3.24,3.24,0,0,1,.336-.164,3.919,3.919,0,0,1,.409-.1c.081.122.156.229.225.34a.4.4,0,0,1,.007.445q-.455.745-.917,1.483c-.018.028-.076.032-.116.047Z" transform="translate(-371.792 -90.423)" fill="#fff"/>
      <path id="Path_1332" data-name="Path 1332" d="M246.31,200.989a.759.759,0,0,1-.556.327c-.265-.092-.411-.33-.6-.513-.21-.2-.406-.415-.607-.624-.187-.192-.377-.38-.561-.576a3.173,3.173,0,0,1-.525-.6c.092,0,.142-.016.169,0q1.315.923,2.623,1.853c.031.022.038.077.06.124Z" transform="translate(-240.472 -172.08)" fill="#fff"/>
      <path id="Path_1333" data-name="Path 1333" d="M274.157,84.753a9.621,9.621,0,0,1-2.607-.768,1.444,1.444,0,0,1,1.259-.173A2.143,2.143,0,0,1,274.157,84.753Z" transform="translate(-264.762 -72.415)" fill="#fff"/>
      <path id="Path_1334" data-name="Path 1334" d="M546.644,109.27a1.892,1.892,0,0,1,.625,1.473c-.138.066-.252.133-.372.176a2.718,2.718,0,0,1-.367.073c.042-.322.092-.6.11-.877S546.644,109.551,546.644,109.27Z" transform="translate(-502.541 -94.487)" fill="#fff"/>
      <path id="Path_1335" data-name="Path 1335" d="M255.664,78.994a.221.221,0,0,1-.284.2c-.538-.127-1.074-.273-1.6-.433-.085-.026-.152-.153-.2-.246-.015-.028.043-.127.089-.149a.3.3,0,0,1,.193.007q.86.26,1.719.53c.035.011.058.061.088.093Z" transform="translate(-249.216 -67.75)" fill="#fff"/>
      <path id="Path_1336" data-name="Path 1336" d="M234.819,95.833a15.578,15.578,0,0,1,.275-4.211c.211-.039.234.081.214.187-.058.306-.145.606-.206.912a13.533,13.533,0,0,0-.283,2.65v.461Z" transform="translate(-232.965 -79.22)" fill="#fff"/>
      <path id="Path_1337" data-name="Path 1337" d="M240.6,78.44c.146.273.156.4.034.426a3.339,3.339,0,0,0-1.435.921c-.014.012-.043.007-.066.009-.145-.108-.081-.237-.009-.341A2.5,2.5,0,0,1,240.6,78.44Z" transform="translate(-236.655 -67.828)" fill="#fff"/>
      <path id="Path_1338" data-name="Path 1338" d="M397.2,92.727a8.357,8.357,0,0,1,.327-1.707l.133.011c.045.253.1.5.133.758.028.218.035.44.054.7l-.648.244Z" transform="translate(-373.413 -78.706)" fill="#fff"/>
      <path id="Path_1339" data-name="Path 1339" d="M420.726,141.822l-.446-.449a.944.944,0,0,1,.415-.547.278.278,0,0,1,.242-.039.255.255,0,0,1,.1.21,1.779,1.779,0,0,1-.311.824Z" transform="translate(-393.371 -121.729)" fill="#fff"/>
      <path id="Path_1340" data-name="Path 1340" d="M236.178,129.178a1.092,1.092,0,0,1-.9-.058.777.777,0,0,1,.195-.69A1.453,1.453,0,0,1,236.178,129.178Z" transform="translate(-233.383 -111.055)" fill="#fff"/>
      <path id="Path_1341" data-name="Path 1341" d="M512.811,277.509a.754.754,0,0,1,.16-.655.38.38,0,0,1,.139,0c.219.091.542.156.524.423-.022.321-.38.2-.593.268-.054.018-.125-.016-.231-.032Z" transform="translate(-473.374 -239.391)" fill="#fff"/>
      <path id="Path_1342" data-name="Path 1342" d="M340.279,275.464a5.522,5.522,0,0,1-.415.415c-.118.092-.241.21-.417.138-.123-.05-.188-.253-.154-.472a.246.246,0,0,1,.272-.231c.192.027.382.078.714.149Z" transform="translate(-323.333 -238.066)" fill="#fff"/>
      <path id="Path_1343" data-name="Path 1343" d="M432.161,279.73a1.363,1.363,0,0,1,.687.594.981.981,0,0,1-.81.027c-.047-.238-.072-.453.124-.621Z" transform="translate(-403.509 -241.887)" fill="#fff"/>
      <path id="Path_1344" data-name="Path 1344" d="M393.841,290.56a1.082,1.082,0,0,1-.448.931.135.135,0,0,1-.124,0c-.23-.157-.321-.536-.065-.662C393.38,290.747,393.564,290.678,393.841,290.56Z" transform="translate(-369.825 -251.252)" fill="#fff"/>
      <path id="Path_1345" data-name="Path 1345" d="M340.135,152.137a1.294,1.294,0,0,1-.095-.67,1.183,1.183,0,0,1,.794.147c-.135.285-.418.36-.7.524Z" transform="translate(-323.977 -130.961)" fill="#fff"/>
      <path id="Path_1346" data-name="Path 1346" d="M227.421,133.694a1.169,1.169,0,0,1-.6.655c-.192-.317-.193-.515-.014-.716.134-.15.275-.141.61.061Z" transform="translate(-225.961 -115.466)" fill="#fff"/>
      <path id="Path_1347" data-name="Path 1347" d="M580.42,130.075c-.1.187-.181.331-.275.5-.352-.177-.478-.478-.745-.781a1.158,1.158,0,0,1,1.019.279Z" transform="translate(-530.964 -112.216)" fill="#fff"/>
      <path id="Path_1348" data-name="Path 1348" d="M239.251,272.693a.59.59,0,0,1,.149-.633,1.3,1.3,0,0,1,.709.553c-.276.269-.555.092-.858.08Z" transform="translate(-236.81 -235.254)" fill="#fff"/>
      <path id="Path_1349" data-name="Path 1349" d="M464.826,131.41a1.587,1.587,0,0,1,.764.51c-.161.035-.3.069-.44.093s-.329.091-.417-.073a.447.447,0,0,1,.091-.529Z" transform="translate(-431.767 -113.632)" fill="#fff"/>
      <path id="Path_1350" data-name="Path 1350" d="M261.855,217.4c-.21-.682-.176-.745.509-1a1.12,1.12,0,0,1,.026.365A1.067,1.067,0,0,1,261.855,217.4Z" transform="translate(-256.28 -187.124)" fill="#fff"/>
      <path id="Path_1351" data-name="Path 1351" d="M231.358,127.824c-.03-.037-.093-.077-.1-.127-.028-.208.068-.391.208-.409a.125.125,0,0,1,.1.061.383.383,0,0,1-.129.456c-.014.011-.038.009-.081.018Z" transform="translate(-229.916 -110.067)" fill="#fff"/>
      <path id="Path_1352" data-name="Path 1352" d="M265.753,301.353a1.333,1.333,0,0,1-.314.018c-.051-.015-.133-.072-.13-.1.009-.122.106-.11.188-.077A2.33,2.33,0,0,1,265.753,301.353Z" transform="translate(-259.366 -260.424)" fill="#fff"/>
    </g>
    <g id="Group_49" data-name="Group 49" transform="translate(0.001 53.956)">
      <path id="Path_1353" data-name="Path 1353" d="M416.026,429.839l-.818-.081a3.941,3.941,0,0,1-.111-.453q-.485-4.341-.965-8.68-.122-1.1-.256-2.2a2.767,2.767,0,0,0-.069-.308c-.181,0-.211.111-.229.221-.139.885-.275,1.768-.411,2.653q-.461,2.983-.919,5.967c-.149.973-.292,1.947-.441,2.919a2.733,2.733,0,0,1-.083.392.313.313,0,0,1-.294.239,21.771,21.771,0,0,1-2.88-.038c-.019,0-.037-.026-.089-.065-.042-.154-.093-.341-.153-.557l-.973-.1a2.524,2.524,0,0,1-.005-.4q.891-5.844,1.787-11.687.781-5.114,1.554-10.228.394-2.589.8-5.177a3.362,3.362,0,0,1,.1-.367,14.618,14.618,0,0,1,3.3,0l.179.653c.057.039.073.058.093.064.647.161.651.161.721.8q.272,2.435.541,4.869.268,2.4.537,4.8a2.922,2.922,0,0,0,.253.906,2.47,2.47,0,0,0,.141-.423c.287-1.836.565-3.673.848-5.51q.428-2.788.862-5.576c.031-.2.085-.388.133-.6a7.9,7.9,0,0,1,1.747-.065,12.7,12.7,0,0,1,1.764.037c.014.258.026.475.037.671.222.256.538.087.812.249a1.062,1.062,0,0,1,.03.287c-.273,1.813-.555,3.626-.831,5.438-.245,1.614-.479,3.231-.725,4.845-.242,1.592-.5,3.182-.741,4.774-.248,1.614-.487,3.231-.732,4.845q-.288,1.891-.58,3.783-.239,1.559-.478,3.118c-.016.111-.019.225-.042.333a.391.391,0,0,1-.368.334c-.111.011-.223.009-.336.011-.649,0-1.3,0-1.948,0-.153,0-.307-.027-.483-.043-.091-.21-.179-.409-.281-.644Z" transform="translate(-352.218 -401.388)" fill="#fff"/>
      <path id="Path_1354" data-name="Path 1354" d="M542.836,408.352a27.472,27.472,0,0,1-.256,4.149,45.574,45.574,0,0,1-1.089,6,22.425,22.425,0,0,1-2.349,5.907,11.135,11.135,0,0,1-2.035,2.572,5.521,5.521,0,0,1-1.868,1.163,3.38,3.38,0,0,1-3.26-.371c-.349-.244-.7-.478-1.044-.732a5.727,5.727,0,0,1-1.752-2.258,10.515,10.515,0,0,1-.813-2.9,21.564,21.564,0,0,1-.083-4.558,49.911,49.911,0,0,1,.6-5.133,33.8,33.8,0,0,1,1.642-6.292,17.31,17.31,0,0,1,2.437-4.539,7.94,7.94,0,0,1,1.848-1.744,4.5,4.5,0,0,1,2.727-.789,3.269,3.269,0,0,1,2.081.823c.187.161.36.336.549.494A6.335,6.335,0,0,1,542.112,403a12.983,12.983,0,0,1,.721,3.81c.019.514,0,1.03,0,1.545Zm-9.9,10.525c.038.579.07,1.25.131,1.917a5.955,5.955,0,0,0,.169.854c.181.759.48.989,1.3.425a3.035,3.035,0,0,0,.832-.955,10.627,10.627,0,0,0,.938-2,28.08,28.08,0,0,0,1.062-3.95,43.868,43.868,0,0,0,.759-5.786,14.024,14.024,0,0,0-.087-3.282,7.359,7.359,0,0,0-.271-1.105c-.13-.388-.357-.486-.732-.315a2.2,2.2,0,0,0-.657.446,5.394,5.394,0,0,0-.651.85,10.186,10.186,0,0,0-.965,2.136,35.135,35.135,0,0,0-1.611,7.933c-.1.91-.143,1.828-.219,2.834Z" transform="translate(-456.748 -398.828)" fill="#fff"/>
      <path id="Path_1355" data-name="Path 1355" d="M298.16,418.931a47.9,47.9,0,0,1,1.161-9.052,29.86,29.86,0,0,1,1.335-4.363,16.527,16.527,0,0,1,2.3-4.16,7.9,7.9,0,0,1,1.8-1.7,4.514,4.514,0,0,1,2.592-.8,3.335,3.335,0,0,1,2.27.865c.234.208.464.422.7.628a6.717,6.717,0,0,1,1.967,3.377,15.675,15.675,0,0,1,.451,2.507,20.834,20.834,0,0,1,.081,3.087c-.027.737-.1,1.473-.183,2.207-.1.89-.2,1.779-.331,2.664a31.793,31.793,0,0,1-2.292,8.463,14.6,14.6,0,0,1-2.261,3.641,6.855,6.855,0,0,1-1.73,1.476,5.047,5.047,0,0,1-1.366.545,3.168,3.168,0,0,1-2.516-.391,15.643,15.643,0,0,1-1.426-1.007,6.212,6.212,0,0,1-1.929-3.014,14.018,14.018,0,0,1-.626-4.238c0-.246,0-.492,0-.74Zm9.961-10.468a12.485,12.485,0,0,0-.195-2.757,5.1,5.1,0,0,0-.264-.829.385.385,0,0,0-.5-.231,1.57,1.57,0,0,0-.852.509,7.844,7.844,0,0,0-.68.913,10.742,10.742,0,0,0-.993,2.271,34.23,34.23,0,0,0-1.473,7.153q-.13,1.134-.222,2.271a13.514,13.514,0,0,0,.135,3.481,4.515,4.515,0,0,0,.244.836.457.457,0,0,0,.647.3,1.874,1.874,0,0,0,1.007-.749,11.957,11.957,0,0,0,.825-1.38,13.534,13.534,0,0,0,.915-2.522,40.823,40.823,0,0,0,1.4-9.263Z" transform="translate(-257.823 -398.855)" fill="#fff"/>
      <path id="Path_1356" data-name="Path 1356" d="M724,430.506l-.24-.62-.846-.106a1.088,1.088,0,0,1-.1-.682c0-.828.013-1.657.016-2.485a1.259,1.259,0,0,0-.092-.691,1.715,1.715,0,0,0-.357-.074c-.582-.007-1.165-.007-1.747,0-.463.008-.544.06-.675.494-.291.965-.564,1.933-.846,2.9-.093.322-.185.645-.283.967a.392.392,0,0,1-.375.331c-.961-.007-1.92-.026-2.879-.042-.018,0-.035-.024-.089-.064-.023-.16-.049-.35-.08-.57l-1.02-.081a1.162,1.162,0,0,1,.116-.732q1-3.312,2.006-6.621l6.015-19.791c.077-.254.168-.5.243-.733a21.476,21.476,0,0,1,3.7-.027c.045.216.092.448.149.72l.683.157c.2.216.134.475.135.713.008,1.456.008,2.911.011,4.367q.014,10.918.027,21.835c0,.2,0,.4-.023.6a.286.286,0,0,1-.265.26,1.609,1.609,0,0,1-.268.018c-.851,0-1.7,0-2.553,0a3.084,3.084,0,0,1-.363-.046Zm-1.067-9.751c.066-1.542.12-3.029.089-4.519,0-.02-.061-.039-.095-.058a30.155,30.155,0,0,0-1.223,4.009,5.077,5.077,0,0,0-.07.537,2.935,2.935,0,0,0,1.3.031Z" transform="translate(-617.72 -401.414)" fill="#fff"/>
      <path id="Path_1357" data-name="Path 1357" d="M656.07,414.533a6.824,6.824,0,0,0,.741-1.807c.215-.589.4-1.189.6-1.783.208-.616.421-1.23.628-1.844.2-.594.4-1.191.594-1.784.207-.616.418-1.23.626-1.845.2-.594.394-1.191.6-1.784.208-.613.422-1.224.624-1.807a18.7,18.7,0,0,1,3.62-.011c-.024.212-.05.426-.074.639.248.287.621.05.888.235.1.207-.019.391-.078.574-.4,1.214-.8,2.423-1.2,3.634q-2.291,6.883-4.582,13.767-1.494,4.493-2.982,8.99c-.288.871-.23.812-1.115.814-.471,0-.942.007-1.411,0-.4-.008-.4-.019-.536-.446-.02-.062-.051-.122-.1-.221l-.836-.11a1.7,1.7,0,0,1-.11-.74q-.1-2.585-.188-5.172-.122-3.46-.24-6.919c-.068-2.016-.13-4.03-.2-6.046q-.144-4.132-.292-8.262a1.512,1.512,0,0,1,.057-.77,5.186,5.186,0,0,1,1.172-.046c.425-.009.851,0,1.277,0,.4,0,.8.014,1.161.019.062.083.106.114.112.152a.817.817,0,0,0,.7.733.7.7,0,0,1,.154.091c.019.1.043.225.066.352a.559.559,0,0,1,0,.068q.073,3.091.146,6.18.061,2.419.131,4.836a2.626,2.626,0,0,0,.047.321Z" transform="translate(-562.948 -401.376)" fill="#fff"/>
      <path id="Path_1358" data-name="Path 1358" d="M147.4,401.883c-.057.3-.1.515-.134.716.291.239.644.046.967.226a5.008,5.008,0,0,1-.152.49q-1.017,2.413-2.043,4.824-2.835,6.676-5.673,13.354c-.341.8-.689,1.6-1.027,2.411-.084.2-.23.394-.142.641a1.052,1.052,0,0,0,.647.081c.985.007,1.971,0,2.957.005a1.05,1.05,0,0,1,.672.1c.011.207.022.426.032.624.222.279.59.1.85.352-.035.318-.06.67-.114,1.017-.166,1.084-.342,2.166-.515,3.248a2.21,2.21,0,0,1-.05.264.4.4,0,0,1-.429.346c-.111.009-.223.007-.336.007h-9.34c-.154,0-.308-.014-.491-.022v-.583c-.055-.045-.088-.092-.123-.095-.223-.016-.446-.018-.67-.034a2.809,2.809,0,0,1-.3-.054,1.015,1.015,0,0,1,.169-.667q2.275-5.457,4.558-10.911,1.985-4.74,3.971-9.481c.1-.245.2-.5.279-.7a.4.4,0,0,0-.425-.241c-.471-.009-.94-.008-1.411-.009-.426,0-.851.005-1.277,0-.175,0-.348-.038-.536-.061-.065-.189-.12-.354-.176-.521a.7.7,0,0,0-.191-.076c-.242-.02-.486-.03-.712-.042-.18-.206-.1-.413-.07-.6.145-1,.3-1.993.455-2.988.077-.507.154-1.013.237-1.549a3.967,3.967,0,0,1,.4-.08c.156-.014.314-.007.469-.007q4.4,0,8.8,0c.267,0,.532.012.87.022Z" transform="translate(-114.116 -401.447)" fill="#fff"/>
      <path id="Path_1359" data-name="Path 1359" d="M1.15,430.582l-.164-.63-.9-.092a.628.628,0,0,1-.073-.087A.112.112,0,0,1,0,429.708c.053-.4.1-.8.161-1.2Q2.178,415.334,4.2,402.158a.832.832,0,0,1,.088-.195,1.351,1.351,0,0,1,.254-.053q3.291,0,6.583.005a.908.908,0,0,1,.225.069c.014.212.027.428.041.628.21.267.533.085.806.268a1.039,1.039,0,0,1,.053.336c-.2,1.3-.423,2.6-.607,3.91-.077.544-.211.575-.7.576-.717,0-1.433,0-2.15,0a4.482,4.482,0,0,0-.6.039.36.36,0,0,0-.321.3q-.085.428-.152.859c-.165,1.084-.326,2.167-.491,3.251a1.654,1.654,0,0,0-.005.8c.693.211,1.4-.031,2.1.172v.639c.233.262.549.085.818.253a2.279,2.279,0,0,1-.043.893c-.162,1.151-.341,2.3-.514,3.451,0,.022,0,.045-.007.066-.116.66-.2.658-.783.653-.717,0-1.433-.005-2.15.005-.386.005-.473.083-.533.457q-.278,1.723-.54,3.447c-.2,1.326-.4,2.653-.6,3.98-.156,1.017-.317,2.033-.475,3.051-.014.088-.015.18-.034.267a.389.389,0,0,1-.363.34,1.962,1.962,0,0,1-.268.009c-.762,0-1.523,0-2.284,0a3.519,3.519,0,0,1-.388-.047Z" transform="translate(-0.001 -401.493)" fill="#fff"/>
      <path id="Path_1360" data-name="Path 1360" d="M91.9,430.563c-.037-.2-.073-.391-.114-.616l-.974-.085a3.22,3.22,0,0,1,0-.459q.444-2.957.9-5.912.708-4.649,1.419-9.3.649-4.249,1.3-8.5c.156-1.019.306-2.037.461-3.056.034-.219.081-.437.123-.657a1.356,1.356,0,0,1,.284-.069q1.445-.006,2.89,0a1.575,1.575,0,0,1,.284.06c.015.231.028.446.042.641.219.264.544.08.812.271a1.177,1.177,0,0,1,.039.34c-.176,1.195-.364,2.388-.545,3.582-.218,1.438-.43,2.876-.649,4.314-.185,1.216-.38,2.432-.568,3.649q-.313,2.023-.62,4.048c-.152,1-.3,1.991-.448,2.987q-.379,2.488-.767,4.974c-.175,1.127-.361,2.253-.519,3.382-.054.388-.219.471-.518.471q-1.276,0-2.553,0A1.351,1.351,0,0,1,91.9,430.563Z" transform="translate(-78.519 -401.491)" fill="#fff"/>
      <path id="Path_1361" data-name="Path 1361" d="M243.549,430.5c-.045-.162-.1-.35-.156-.564l-.973-.1a3.367,3.367,0,0,1,0-.469q.473-3.121.956-6.242.584-3.819,1.166-7.637.7-4.582,1.4-9.163c.2-1.306.4-2.612.6-3.918.023-.15.073-.3.107-.433a17.951,17.951,0,0,1,3.452,0v.64c.241.257.58.072.852.227a3.237,3.237,0,0,1-.076.99q-.377,2.557-.775,5.11c-.2,1.3-.41,2.608-.61,3.912s-.391,2.611-.59,3.915c-.206,1.349-.418,2.7-.622,4.045-.2,1.327-.391,2.656-.593,3.983-.237,1.548-.482,3.094-.721,4.642-.041.265-.064.534-.114.8a.4.4,0,0,1-.41.371c-.917,0-1.834-.012-2.752-.023-.039,0-.077-.039-.149-.078Z" transform="translate(-209.618 -401.471)" fill="#fff"/>
    </g>
  </g>
</svg>
