<svg id="FRT" xmlns="http://www.w3.org/2000/svg" width="95.718" height="130.275" viewBox="0 0 95.718 130.275">
  <path id="Path_1362" data-name="Path 1362" d="M85.931,130.275H9.787c-5.393,0-9.787-3.954-9.787-8.8V8.8C0,3.954,4.394,0,9.787,0H85.931c5.393,0,9.787,3.954,9.787,8.8V121.473C95.718,126.321,91.324,130.275,85.931,130.275ZM10.393,1.227c-5.106,0-9.257,3.727-9.257,8.318v111.17c0,4.576,4.151,8.3,9.257,8.3H85.34c5.106,0,9.257-3.727,9.257-8.3V9.529c0-4.575-4.151-8.317-9.257-8.317l-74.947.015Z" fill="#fff"/>
  <path id="Path_1363" data-name="Path 1363" d="M11.272,121.564l.363-2.424.046-.152.212-.136h1.924l-.076.47h-1.53l-.091.575h1.151l-.03.182-.045.152-.212.136h-.925l-.181,1.2h-.606Z" fill="#fff"/>
  <path id="Path_1364" data-name="Path 1364" d="M14.135,121.564l.364-2.424.045-.152.212-.136H16.68l-.076.47h-1.53l-.091.575h1.152l-.031.182-.045.152-.212.136h-.924l-.106.7h1.545l-.076.5H14.135Z" fill="#fff"/>
  <path id="Path_1365" data-name="Path 1365" d="M17.665,121.079h.485l.5-.076.394-.485.06-.848-.363-.348h-.819l-.257,1.757Zm-.667.485.364-2.424.045-.152.212-.136h.94l.772.106.44.788-.182.909-.379.545-.454.258-.5.091L17,121.564Z" fill="#fff"/>
  <path id="Path_1366" data-name="Path 1366" d="M20.225,121.564l.364-2.424.045-.152.212-.136H22.77l-.075.47h-1.53l-.091.575h1.151l-.03.182-.046.152-.212.136h-.924l-.106.7h1.545l-.075.5H20.225Z" fill="#fff"/>
  <path id="Path_1367" data-name="Path 1367" d="M23.922,120.034h.712l.273-.031.212-.2.015-.333-.227-.151h-.879Zm-.833,1.53.363-2.424.046-.152.212-.136h1.212l.545.061.333.454-.121.561-.3.287.137.455-.046.515-.015.061-.015.106.03.181-.621.031-.03-.106v-.2l.045-.318v-.273l-.212-.152h-.8l-.151,1.061-.606-.015Z" fill="#fff"/>
  <path id="Path_1368" data-name="Path 1368" d="M27.982,119.4l-.591,1.152h.818l-.227-1.152Zm-.061-.545h.485l.667,2.712h-.636L28.331,121H27.179l-.273.561H26.27l1.364-2.53a.355.355,0,0,1,.318-.182" fill="#fff"/>
  <path id="Path_1369" data-name="Path 1369" d="M30.209,121.564l.333-2.227h-.878l.03-.2.045-.152.213-.136h2.121l-.076.485h-.864l-.333,2.227h-.591Z" fill="#fff"/>
  <path id="Path_1370" data-name="Path 1370" d="M32.406,121.564l.363-2.424.046-.152.212-.136h.379L33,121.564h-.591Z" fill="#fff"/>
  <path id="Path_1371" data-name="Path 1371" d="M35.39,119.4l-.59,1.152h.818Zm-.06-.545h.485l.666,2.712h-.636L35.739,121H34.587l-.272.561h-.637l1.364-2.53a.357.357,0,0,1,.318-.182" fill="#fff"/>
  <path id="Path_1372" data-name="Path 1372" d="M39.663,120.034h.712l.273-.031.212-.2.015-.333-.227-.151h-.879Zm-.833,1.53.363-2.424.046-.152.212-.136h1.212l.545.061.333.454-.121.561-.3.287.137.455-.046.515-.015.061-.015.106.03.181-.621.031-.03-.106v-.2l.045-.318v-.273l-.212-.152h-.8l-.151,1.061-.606-.015Z" fill="#fff"/>
  <path id="Path_1373" data-name="Path 1373" d="M42.753,120.215l-.015.531.424.409.743-.076.454-.561.046-.818-.44-.424-.742.076-.439.56-.031.3Zm-.606,0,.243-.787.969-.637,1.2.122.53.863-.318,1.212-.969.636-1.212-.121-.5-.848" fill="#fff"/>
  <path id="Path_1374" data-name="Path 1374" d="M45.556,121.564l.364-2.424.045-.152.212-.136h.682l.273,2.075.894-2.075h.893l-.409,2.712h-.56l.333-2.182-.924,2.182h-.621l-.273-2.182-.333,2.182h-.576Z" fill="#fff"/>
  <path id="Path_1375" data-name="Path 1375" d="M51.01,119.4l-.591,1.152h.818Zm-.06-.545h.484l.667,2.712h-.636L51.359,121H50.207l-.273.561H49.3l1.364-2.53a.355.355,0,0,1,.318-.182" fill="#fff"/>
  <path id="Path_1376" data-name="Path 1376" d="M52.858,121.564l.364-2.424.045-.152.213-.136h.409l.924,1.863.288-1.863h.606l-.409,2.712h-.622l-.924-1.864-.288,1.864h-.606Z" fill="#fff"/>
  <path id="Path_1377" data-name="Path 1377" d="M57.752,119.4l-.591,1.152h.818Zm-.061-.545h.485l.667,2.712h-.637L58.1,121H56.949l-.273.561H56.04l1.363-2.53a.358.358,0,0,1,.319-.182" fill="#fff"/>
  <path id="Path_1378" data-name="Path 1378" d="M61.858,121.079h.484l.5-.076.394-.485.061-.848-.364-.348h-.818l-.257,1.757Zm-.667.485.364-2.424.045-.152.212-.136h.939l.773.106.439.788-.181.909-.379.545-.455.258-.5.091-1.257.015Z" fill="#fff"/>
  <path id="Path_1379" data-name="Path 1379" d="M64.433,121.564l.364-2.424.045-.152.212-.136h1.924l-.076.47H65.357l-.091.575h1.152l-.031.182-.045.152-.212.136h-.924l-.106.7h1.545l-.076.5H64.433Z" fill="#fff"/>
  <path id="Path_1380" data-name="Path 1380" d="M69.751,121.564l.333-2.227h-.879l.031-.2.045-.152.212-.136h2.121l-.076.485h-.863l-.333,2.227Z" fill="#fff"/>
  <path id="Path_1381" data-name="Path 1381" d="M71.963,121.564l.363-2.424.046-.152.212-.136h1.924l-.076.47H72.887l-.091.575h1.151l-.03.182-.046.152-.212.136h-.924l-.106.7h1.545l-.075.5H71.963Z" fill="#fff"/>
  <path id="Path_1382" data-name="Path 1382" d="M74.811,121.564l.363-2.424.046-.152.212-.136h.409l.924,1.863.288-1.863h.606l-.409,2.712h-.621L75.7,119.7l-.288,1.864h-.606Z" fill="#fff"/>
  <path id="Path_1383" data-name="Path 1383" d="M77.977,121.564l.364-2.424.045-.152.212-.136h.379l-.409,2.712h-.591Z" fill="#fff"/>
  <path id="Path_1384" data-name="Path 1384" d="M79.356,120.715h.606l.045.273.349.167.515-.031.257-.2-.2-.409-.575-.121-.47-.121-.257-.212-.076-.333.182-.606.727-.364.969.076.409.515-.363.257-.212-.06-.091-.212L80.9,119.2l-.47.031-.227.2.106.348.485.106.227.061.212.045.2.076.258.182.106.333-.2.636-.758.379-1.045-.076-.439-.53" fill="#fff"/>
  <path id="Path_1385" data-name="Path 1385" d="M42.935,105.293l1.106-6.166h4.8a4.538,4.538,0,0,1,2.833.757l.712,1.348c-.379,2.076-.864,2.864-1.636,3.333a6,6,0,0,1-3.333.743Zm15.908-2.985c.409-2.288-.031-4.015-1.318-5.166-1.243-1.167-3.318-1.742-6.257-1.742H40.86a3.686,3.686,0,0,0-2.152.651l-1.015.97-3.53,19.831H40.89l1.363-7.666H47.51l4,7.666H58.9l-4.439-8.681a6.944,6.944,0,0,0,1.3-.757,7.888,7.888,0,0,0,3.076-5.106" fill="#fff"/>
  <path id="Path_1386" data-name="Path 1386" d="M82.446,96.036l-1.121-.651H60.449l-.682,3.8h8.09l-3.151,17.65h6.711L74.553,99.2h8.166l.273-1.56a1.684,1.684,0,0,0-.561-1.591" fill="#fff"/>
  <path id="Path_1387" data-name="Path 1387" d="M20.71,105.277l1.121-6.211H36.239l.666-3.681H18.725a3.68,3.68,0,0,0-2.151.651l-1.015.97-3.53,19.831h6.636l1.348-7.666h9.014l.7-3.909h-1.03l-7.984.015Z" fill="#fff"/>
  <path id="Path_1388" data-name="Path 1388" d="M9.514,95.506c9.575-7.166,23.21-11.651,38.345-11.651S76.629,88.34,86.2,95.506C79.159,85.689,64.63,78.947,47.859,78.947S16.574,85.689,9.514,95.506" fill="#fff" fill-rule="evenodd"/>
  <path id="Path_1389" data-name="Path 1389" d="M9.514,95.506c9.575-4.727,23.21-7.681,38.345-7.681s28.77,2.954,38.345,7.681C79.159,89.037,64.63,84.6,47.859,84.6s-31.3,4.439-38.345,10.908" fill="#fff" fill-rule="evenodd"/>
  <path id="Path_1390" data-name="Path 1390" d="M9.514,95.491l.061-.046.03-.015C16.695,89.006,31.148,84.6,47.844,84.6S79.007,89.006,86.082,95.43l.061.045c-7.014-8.241-21.528-13.907-38.314-13.907s-31.3,5.666-38.345,13.923" fill="#fff" fill-rule="evenodd"/>
  <path id="Path_1391" data-name="Path 1391" d="M9.514,95.491l.061-.046.03-.015C16.695,89.006,31.148,84.6,47.844,84.6S79.007,89.006,86.082,95.43l.061.045c-7.014-8.241-21.528-13.907-38.314-13.907s-31.3,5.666-38.345,13.923" fill="#fff" fill-rule="evenodd"/>
  <path id="Path_1392" data-name="Path 1392" d="M48.889,32.648h.03l.97-.06.47-.106A4.364,4.364,0,0,1,49.1,29.1c.137-2.424,1.712-3.742,4.848-4l1.182-.319.227-.378.091-.212a6.77,6.77,0,0,0-6.56-4.8A7.137,7.137,0,0,0,45.1,20.483l-.091.182-.031.091.061,1.469.758.955a3.945,3.945,0,0,1,.5,4.454,3.85,3.85,0,0,1-3.09,1.848h-.182a6.939,6.939,0,0,0,5.863,3.166" fill="#fff" fill-rule="evenodd"/>
  <path id="Path_1393" data-name="Path 1393" d="M42.011,26.028l.121,1.378.212.637.485.03.227-.015,1.712-.44.394-.681a2.528,2.528,0,0,0-.363-2.864L43.768,22.5l-.121-.727a6.417,6.417,0,0,0-1.621,4.272" fill="#fff" fill-rule="evenodd"/>
  <path id="Path_1394" data-name="Path 1394" d="M55.782,26.028l-.015-.091v-.046l-1.06.576-.743.091c-2.424.2-3.439.97-3.53,2.651a3.21,3.21,0,0,0,1.394,2.8,6.6,6.6,0,0,0,3.954-5.984" fill="#fff" fill-rule="evenodd"/>
  <path id="Path_1395" data-name="Path 1395" d="M68.8,41.875c-3.272-2.758-2.833-8.09.909-12s9.408-4.924,12.666-2.167,2.772,8.151-.97,12.075S72.053,44.632,68.8,41.89v-.015ZM60.04,51.01a27.686,27.686,0,0,0,5.7-12.1,6.612,6.612,0,0,0,2.212,3.864,7.351,7.351,0,0,0,4.333,1.651A30.931,30.931,0,0,0,60.04,51.01Zm11.983-3.166-.5.878.243,1.455a14.108,14.108,0,0,0-4.121-.849,10.38,10.38,0,0,0,4.378-1.484h0ZM48.4,45.662a13.507,13.507,0,0,0,8.06-2.772A49.269,49.269,0,0,0,49.389,59.9h-.015l-.015.106L48.4,66.236A51.056,51.056,0,0,0,40.345,42.89,13.491,13.491,0,0,0,48.4,45.647v.015Zm-9.862-6.969.03.015-.076-.075a19.7,19.7,0,0,1-4.53-12.863C33.966,16,40.36,8.03,48.4,8.03s14.438,8.029,14.438,17.8S56.449,43.4,48.4,43.4a13.08,13.08,0,0,1-9.862-4.727v.015ZM27.088,27.134l1.636-.046a4.406,4.406,0,0,0,2.2-2.151,13.937,13.937,0,0,0,1.652,6.575,15.194,15.194,0,0,0-5.485-4.378Zm32.224,33.36.485,1.8a5.418,5.418,0,0,0,3.257,1.878,19.049,19.049,0,0,0-7.862,3.5,17.417,17.417,0,0,0,4.12-7.181Zm-34.057-7.6a8.059,8.059,0,0,0,4.787-1.7,7.273,7.273,0,0,0,2.531-4.181A30,30,0,0,0,38.481,60.4a33.8,33.8,0,0,0-13.226-7.514h0Zm-9.878-5.3c-4-4.378-4.378-10.3-.727-13.241s9.817-1.7,13.817,2.667,4.318,10.226.666,13.165-9.741,1.772-13.741-2.591Zm12.2,12.438.864-.863a3.013,3.013,0,0,0-.046-2.3,12.069,12.069,0,0,0,4.727,2.772,12.844,12.844,0,0,0-5.56.394h.015Zm11.408-7.211.879-.318.757-1.106a11.56,11.56,0,0,0,2.227,2.848,9.254,9.254,0,0,0-3.863-1.424h0ZM66.342,21.3l.894,1.288a4.792,4.792,0,0,0,3.09.636l-3.514,2.757H66.8L66.781,26,65.6,27.376a16.183,16.183,0,0,0,.712-6.075h.03Zm6.969,1.363-.106.8.636,1.031a11.134,11.134,0,0,0-3.363.484,8,8,0,0,0,2.848-2.3l-.015-.016Zm8.575,17.665c4.166-4.348,4.681-10.3,1.136-13.286s-9.787-1.879-13.953,2.469l-2.424,3.5c-.076.167-.152.333-.227.5l-.8,3.166c-.894,3.894-3.273,11.454-9.136,17.014-2.2,2.09-3.742,3.5-4.817,4.439A73.185,73.185,0,0,1,59.54,39.966L61.8,36.451l.015.076.03-.122,1.288-3.257c.409-.954.894-2.03,1.409-3.106L66.554,27c.621-.333,1.727-.894,2.894-1.424a10.77,10.77,0,0,1,5.363-.666l1.454.121c2.3-.909,3.151-2.273,2.651-3.379s-2.121-1.5-3.666-.893l-.727.348-.364.288-.469.469a9.82,9.82,0,0,1-4.409,3.364l-1.182.394a14.093,14.093,0,0,1,3.379-2.758A6.521,6.521,0,0,0,74.493,20c1.454-2.651.863-5.651-1.3-6.681s-5.091.273-6.53,2.939L66.069,17.6l-.151.849-.061,1.227a16.934,16.934,0,0,1-1.924,9.863l.258-3.53c0-10.863-7.075-19.665-15.8-19.665S32.618,15.135,32.618,26l.757,6-2.1-6.378c.091-3.03-.243-4.439-1.076-5.712-1.667-2.545-4.681-3.636-6.757-2.454s-2.409,4.212-.742,6.757l.909,1.181.7.561,1.09.7c2.424,1.166,6.03,3.348,8.075,6.848l.849,1.484c.606,1.228.939,1.879,1.3,2.5l.045.137.076.06.97,1.515a69.913,69.913,0,0,1,7.529,15.786l-.151-.106a10.491,10.491,0,0,1-3.53-4.636l-.622-1.393c-2.121-1.652-4-1.712-4.893-.7s-.47,2.727.939,3.818l.743.484.5.182.727.182a11.433,11.433,0,0,1,5.772,2.318l.561.485A49.04,49.04,0,0,1,46.92,67.827c-1.106-1.031-2.606-2.485-4.621-4.47-6.272-6.226-8.666-14.559-9.545-18.846l-.787-3.485c-.076-.182-.152-.363-.228-.56l-2.56-3.879c-4.439-4.863-11.257-6.211-15.211-3.03s-3.56,9.711.879,14.575a14.64,14.64,0,0,0,7.833,4.545,41.435,41.435,0,0,1,13.029,7.2l-.515-.091a15.389,15.389,0,0,1-7.273-3.7,5.291,5.291,0,0,0-2.833-1.621c-2.393-.545-4.7.394-5.135,2.106s1.121,3.545,3.514,4.106l1.182.182.712-.046,1-.166a15.627,15.627,0,0,1,8.423-.349l1.576.455A20.108,20.108,0,0,1,40.238,64.4c2.682,3.242,5.136,6.484,6.833,8.817l-.015.545a23.688,23.688,0,0,1-.712,5.212l1.015-.015c1.439,0,2.363.03,3.272.061a18.378,18.378,0,0,1-.833-4.97l-.015-.257,3.727-4c3.545-3.484,8.454-4.984,11.014-5.56a8.382,8.382,0,0,0,4.666-2.121C71.978,59.63,72.6,55.994,70.569,54s-5.924-1.606-8.711.878L60.6,56.191l-.53.925a7.153,7.153,0,0,0-.712,2.015,21.476,21.476,0,0,1-6.5,10.044c-1.424,1.151-2.424,1.924-3.12,2.454l.727-8.135c1.575-2.121,4.211-5.485,7.135-8.848l5.242-4.666c.894-.121,2.091-.258,3.333-.333a13.131,13.131,0,0,1,6.515,1.469l1.636.743c3.091-.091,4.712-1.319,4.666-2.8s-1.757-2.621-3.8-2.561l-1,.106-.561.182-.757.349a12.844,12.844,0,0,1-6.7,2.045l-1.545-.045a35.06,35.06,0,0,1,10.029-4.818A13.41,13.41,0,0,0,81.9,40.329" fill="#fff"/>
  <path id="Path_1396" data-name="Path 1396" d="M51.48,118.367l.212.3h-.318l-.2-.273-.2.182-.061.061-.091.03h-.242l.3-.3.212-.167.318.061" fill="#fff"/>
  <path id="Path_1397" data-name="Path 1397" d="M58.1,118.246l-.091.242-.257-.015-.076-.121.015-.091h-.242v.258l.182.136.242.03.258-.075.181-.228-.212-.136Z" fill="#fff"/>
  <path id="Path_1398" data-name="Path 1398" d="M30.77,121.806l-.546.576h-.288l.258-.455.03-.045.106-.061.44-.015Z" fill="#fff"/>
</svg>
