<svg xmlns="http://www.w3.org/2000/svg" width="83.584" height="114.928" viewBox="0 0 83.584 114.928">
  <path id="Hotel" d="M0,0H83.584V114.928H0ZM35.835,31.73h2.191V26.9h7.532v4.83H47.75V20.51H45.558v4.445H38.026V20.51H35.835V31.73Zm26.854-1.605c-2.1,0-4.492-.864-4.492-4.043,0-2.7,1.929-3.967,4.492-3.967s4.492,1.266,4.492,3.967c0,3.179-2.393,4.043-4.492,4.043M56.006,26.2c0,2.33,1.373,5.806,6.683,5.806s6.682-3.476,6.682-5.806c0-3.072-1.743-5.973-6.682-5.973s-6.683,2.9-6.683,5.973M19.8,52.626h2.192V43.289h5.016V41.405H14.785v1.883H19.8Zm16.867,0H46.917V50.743H38.86V47.78h6.776V45.9H38.86V43.289h7.872V41.405H36.668V52.626Zm20.859,0H67.851V50.682H59.718V41.405H57.527ZM38.86,67.287V64.123h4.229c1.79,0,2.7.262,2.7,1.574,0,1.328-.911,1.59-2.7,1.59Zm-2.192,6.235H38.86V69.108h3.474l3.256,4.414h2.7l-3.442-4.568a3.176,3.176,0,0,0,3.133-3.3c0-2.747-1.915-3.349-4.568-3.349H36.668V73.523Zm-21.4,0h2.192V69.169h4.058c1.9,0,5.017,0,5.017-3.426S23.413,62.3,21.514,62.3h-6.25V73.523Zm2.192-6.235v-3.1h4.537c1.25,0,2.346.108,2.346,1.543,0,1.451-1.1,1.559-2.346,1.559Zm44.138,6.235h2.191V62.3H61.593V73.523Zm-41.877,20.9H22L27.495,83.2H25.148l-4.29,8.951L16.644,83.2H14.3Zm22.077-1.607c-2.1,0-4.492-.864-4.492-4.044,0-2.7,1.929-3.966,4.492-3.966s4.491,1.266,4.491,3.966c0,3.18-2.391,4.044-4.491,4.044m-6.683-3.92c0,2.33,1.373,5.806,6.683,5.806s6.683-3.476,6.683-5.806c0-3.072-1.744-5.973-6.683-5.973s-6.683,2.9-6.683,5.973M2.192,2.192h79.2V112.736H2.192Z" fill="#fff" fill-rule="evenodd"/>
</svg>
