<svg xmlns="http://www.w3.org/2000/svg" width="154.553" height="25.421" viewBox="0 0 154.553 25.421">
  <g id="Intaro_logo" data-name="Intaro logo" transform="translate(-87.743 -78.228)">
    <g id="INTARO" transform="translate(87.743 78.228)">
      <g id="Group_22" data-name="Group 22" transform="translate(0 0)">
        <g id="Group_15" data-name="Group 15" transform="translate(5.145 8.34) rotate(90)">
          <path id="Path_18" data-name="Path 18" d="M0,0H17.038V5.139H4.33C1.939,5.139,0,2.838,0,0" transform="translate(0)" fill="#fff"/>
        </g>
        <g id="Group_16" data-name="Group 16" transform="translate(45.135 8.291)">
          <path id="Path_19" data-name="Path 19" d="M-98.83-73.835l-1.242,1.4h-11.962v15.693h-5.38V-72.44H-128.59v-1.4Z" transform="translate(128.59 73.835)" fill="#fff"/>
        </g>
        <g id="Group_17" data-name="Group 17" transform="translate(69.118 8.291)">
          <path id="Path_20" data-name="Path 20" d="M-53.255-73.835h-1.287L-69.29-56.748h2.573l.309-.356,11.145-12.909,6.461,7.7h.034l4.676,5.57h5.241Z" transform="translate(69.29 73.835)" fill="#fff"/>
        </g>
        <g id="Group_18" data-name="Group 18" transform="translate(120.835 8.352)">
          <path id="Path_21" data-name="Path 21" d="M-55.987,12.706a16.579,16.579,0,0,0,4.638-.586A10.449,10.449,0,0,0-47.965,10.5,6.862,6.862,0,0,0-45.881,8.02a7.02,7.02,0,0,0,.7-3.129,6.775,6.775,0,0,0-.7-3.079A6.739,6.739,0,0,0-47.965-.606a10.408,10.408,0,0,0-3.384-1.573,17.3,17.3,0,0,0-4.638-.561,17.779,17.779,0,0,0-4.7.561,10.191,10.191,0,0,0-3.4,1.573A6.642,6.642,0,0,0-66.14,1.812a6.9,6.9,0,0,0-.69,3.079,7.145,7.145,0,0,0,.69,3.129A6.767,6.767,0,0,0-64.087,10.5a10.226,10.226,0,0,0,3.4,1.623,17.04,17.04,0,0,0,4.7.586m0,.82a30.858,30.858,0,0,1-6.628-.678,21.736,21.736,0,0,1-5.359-1.857,11.382,11.382,0,0,1-3.572-2.744,5.157,5.157,0,0,1-1.3-3.355,5.024,5.024,0,0,1,1.3-3.3,11.1,11.1,0,0,1,3.572-2.677,22.516,22.516,0,0,1,5.359-1.8,31.637,31.637,0,0,1,6.628-.661,31.643,31.643,0,0,1,6.628.661A22.523,22.523,0,0,1-44-1.083a11.106,11.106,0,0,1,3.572,2.677,5.026,5.026,0,0,1,1.3,3.3,5.158,5.158,0,0,1-1.3,3.355A11.385,11.385,0,0,1-44,10.991a21.743,21.743,0,0,1-5.359,1.857,30.863,30.863,0,0,1-6.628.678" transform="translate(72.846 3.543)" fill="#fff"/>
        </g>
        <g id="Group_19" data-name="Group 19" transform="translate(12.706 8.291)">
          <path id="Path_22" data-name="Path 22" d="M-73.688-73.835v14.67L-90.737-73.748h-5.14v17h5.139V-71.192l16.975,14.444.074-.006v.006h5.38V-73.835Z" transform="translate(95.876 73.835)" fill="#fff"/>
        </g>
        <g id="Group_20" data-name="Group 20" transform="translate(95.278 8.291)">
          <path id="Path_23" data-name="Path 23" d="M-42.135-27.475c4.015-.116,7.3-2.021,7.3-4.354,0-2.407-3.4-4.359-7.587-4.359h-12.4l1.156,1.4h5.816c3.311.126,5.953.965,7.145,2.112a1.777,1.777,0,0,1,.634,1.259c0,.937-.986,1.785-2.578,2.4a15.527,15.527,0,0,1-3.855.863c-.469.05-.958.079-1.454.1l7.6,8.961h5.311" transform="translate(54.823 36.188)" fill="#fff"/>
        </g>
        <g id="Group_21" data-name="Group 21" transform="translate(0 6.589) rotate(-90)">
          <path id="Path_24" data-name="Path 24" d="M0,0H6.589V5.151H5.151A5.151,5.151,0,0,1,0,0" transform="translate(0)" fill="#fff"/>
        </g>
      </g>
    </g>
  </g>
</svg>
