<svg id="raiffeisen" xmlns="http://www.w3.org/2000/svg" width="561.931" height="33.262" viewBox="0 0 561.931 33.262">
  <path id="Path_1399" data-name="Path 1399" d="M561.931,33.262h-257V0h257ZM372.589,25.113h1.9V19.24a7.381,7.381,0,0,1,.317-2.218,2,2,0,0,1,.707-1.035,1.791,1.791,0,0,1,1.12-.38,2.716,2.716,0,0,1,1.394.412l.655-1.764a3.7,3.7,0,0,0-1.954-.613,2.137,2.137,0,0,0-1.225.38,4.684,4.684,0,0,0-1.2,1.574V13.9h-1.711V25.113Zm-57.052,0h2.049V9.629h-2.049Zm11.35,0h2.049V11.456h5.123V9.629H321.785v1.827h5.1Zm29.789,0h2.049v-6.3H362.7q3.285,0,4.542-1.363a4.777,4.777,0,0,0,1.257-3.348,4.7,4.7,0,0,0-.476-2.113,3.713,3.713,0,0,0-1.236-1.489,4.624,4.624,0,0,0-1.911-.729,14.192,14.192,0,0,0-2.356-.147h-5.84V25.113Zm2.049-8.123V11.456h3.96a8.8,8.8,0,0,1,1.912.137,2.266,2.266,0,0,1,1.289.919,2.753,2.753,0,0,1,.5,1.658,2.635,2.635,0,0,1-.834,2.081,4.247,4.247,0,0,1-2.82.739h-4Zm-20.71,8.123h2.049V18.078h7.267V16.251h-7.267v-4.8h8.4V9.629H338.015Zm42.84-5.609a6.047,6.047,0,0,0,1.447,4.352,5.057,5.057,0,0,0,3.813,1.51,5.485,5.485,0,0,0,2.7-.686,4.568,4.568,0,0,0,1.89-1.923,7.4,7.4,0,0,0,.655-3.411,5.747,5.747,0,0,0-1.468-4.183,5.023,5.023,0,0,0-3.781-1.521,5.225,5.225,0,0,0-3.528,1.246A5.782,5.782,0,0,0,380.855,19.5Zm1.954,0a4.754,4.754,0,0,1,.94-3.221,3.019,3.019,0,0,1,2.366-1.067,2.983,2.983,0,0,1,2.344,1.077,4.6,4.6,0,0,1,.951,3.148,4.892,4.892,0,0,1-.94,3.285,3.135,3.135,0,0,1-4.721.01,4.8,4.8,0,0,1-.94-3.232Zm91.474,0a6.051,6.051,0,0,0,1.447,4.352,5.06,5.06,0,0,0,3.813,1.51,5.482,5.482,0,0,0,2.7-.686,4.571,4.571,0,0,0,1.891-1.923,7.409,7.409,0,0,0,.655-3.411,5.747,5.747,0,0,0-1.469-4.183,5.022,5.022,0,0,0-3.781-1.521,5.225,5.225,0,0,0-3.528,1.246,5.785,5.785,0,0,0-1.732,4.616Zm1.954,0a4.759,4.759,0,0,1,.94-3.221,3.022,3.022,0,0,1,2.366-1.067,2.985,2.985,0,0,1,2.345,1.077,4.6,4.6,0,0,1,.951,3.148,4.9,4.9,0,0,1-.94,3.285,3.136,3.136,0,0,1-4.722.01A4.8,4.8,0,0,1,476.237,19.5Zm59.871-7.689h1.9V9.629h-1.9Zm-102.091,13.3h1.7V13.9h-1.9v6.01a5.943,5.943,0,0,1-.317,2.2,2.439,2.439,0,0,1-1.056,1.194,3.156,3.156,0,0,1-1.606.433,2.38,2.38,0,0,1-1.436-.422,2.007,2.007,0,0,1-.76-1.183,11.011,11.011,0,0,1-.117-2.007V13.9h-1.9v6.95a9.7,9.7,0,0,0,.116,1.774,3.692,3.692,0,0,0,.581,1.415,3.125,3.125,0,0,0,1.278.951,4.583,4.583,0,0,0,1.859.38,4.107,4.107,0,0,0,3.56-1.9v1.648Zm88.3,0h1.9V18.987a3.82,3.82,0,0,1,.877-2.926,3.1,3.1,0,0,1,2.1-.771,2.448,2.448,0,0,1,1.32.348,1.79,1.79,0,0,1,.792.919,5.076,5.076,0,0,1,.222,1.733v6.823h1.9v-6.9a10.951,10.951,0,0,0-.1-1.849,3.676,3.676,0,0,0-.592-1.4,2.886,2.886,0,0,0-1.278-.95,4.578,4.578,0,0,0-1.859-.37,4.031,4.031,0,0,0-3.57,1.849V13.9h-1.711V25.113Zm-64.423,0h2.049V18.237h2.376a6.093,6.093,0,0,1,1.141.074,2.985,2.985,0,0,1,.93.412,4.587,4.587,0,0,1,1.045,1.035q.58.74,1.479,2.133l2.049,3.222h2.577L468.848,20.9a10.639,10.639,0,0,0-1.7-2.059,5.25,5.25,0,0,0-1.236-.771,5.4,5.4,0,0,0,3.3-1.437,3.894,3.894,0,0,0,1.067-2.778,4.391,4.391,0,0,0-.645-2.334,3.414,3.414,0,0,0-1.721-1.468,9.028,9.028,0,0,0-3.148-.422H457.9V25.113Zm2.049-8.651V11.34h4.9a3.712,3.712,0,0,1,2.513.707,2.3,2.3,0,0,1,.8,1.806,2.54,2.54,0,0,1-.412,1.395,2.373,2.373,0,0,1-1.2.929,6.721,6.721,0,0,1-2.2.285h-4.4Zm55.914,7.267a4.035,4.035,0,0,0,.381,1.384h1.985a4.362,4.362,0,0,1-.486-1.342,28.388,28.388,0,0,1-.116-3.359V17.878a10.763,10.763,0,0,0-.095-1.754,2.958,2.958,0,0,0-.591-1.288,3.049,3.049,0,0,0-1.321-.856,6.74,6.74,0,0,0-2.334-.338,7.385,7.385,0,0,0-2.545.4,3.6,3.6,0,0,0-1.68,1.13,4.563,4.563,0,0,0-.834,1.922l1.859.253a2.858,2.858,0,0,1,.94-1.658,3.352,3.352,0,0,1,1.986-.475,3.185,3.185,0,0,1,2.165.644,2.1,2.1,0,0,1,.538,1.637c0,.071,0,.236-.01.5a17.41,17.41,0,0,1-3.391.655,13.455,13.455,0,0,0-1.69.285,4.7,4.7,0,0,0-1.373.623,3.175,3.175,0,0,0-.982,1.1,3.081,3.081,0,0,0-.37,1.5,3,3,0,0,0,.993,2.313,4.092,4.092,0,0,0,2.842.9A5.821,5.821,0,0,0,513.82,25a7.024,7.024,0,0,0,2.038-1.267Zm-.158-4.246v.7a4.593,4.593,0,0,1-.306,1.9,2.992,2.992,0,0,1-1.257,1.321,3.967,3.967,0,0,1-1.954.475,2.5,2.5,0,0,1-1.69-.507,1.628,1.628,0,0,1-.571-1.268,1.594,1.594,0,0,1,.264-.9,1.641,1.641,0,0,1,.75-.624,7.253,7.253,0,0,1,1.659-.38,13.92,13.92,0,0,0,3.1-.718Zm-111.2,5.63h2.049V11.456h5.122V9.629H399.4v1.827h5.1Zm7.674-5.609a6.051,6.051,0,0,0,1.447,4.352,5.06,5.06,0,0,0,3.813,1.51,5.482,5.482,0,0,0,2.7-.686,4.571,4.571,0,0,0,1.891-1.923,7.409,7.409,0,0,0,.655-3.411,5.747,5.747,0,0,0-1.469-4.183,5.022,5.022,0,0,0-3.781-1.521,5.225,5.225,0,0,0-3.528,1.246,5.785,5.785,0,0,0-1.732,4.616Zm1.954,0a4.759,4.759,0,0,1,.94-3.221,3.022,3.022,0,0,1,2.366-1.067,2.985,2.985,0,0,1,2.345,1.077,4.6,4.6,0,0,1,.951,3.148,4.892,4.892,0,0,1-.941,3.285,3.135,3.135,0,0,1-4.721.01,4.8,4.8,0,0,1-.94-3.232Zm121.976,5.609h1.9V13.9h-1.9Zm13.864-1.384a4.058,4.058,0,0,0,.381,1.384h1.985a4.333,4.333,0,0,1-.485-1.342,28.078,28.078,0,0,1-.117-3.359V17.878a10.65,10.65,0,0,0-.095-1.754,2.947,2.947,0,0,0-.591-1.288,3.051,3.051,0,0,0-1.32-.856,6.75,6.75,0,0,0-2.335-.338,7.389,7.389,0,0,0-2.545.4,3.607,3.607,0,0,0-1.68,1.13,4.563,4.563,0,0,0-.834,1.922l1.859.253a2.863,2.863,0,0,1,.94-1.658,3.354,3.354,0,0,1,1.986-.475,3.185,3.185,0,0,1,2.165.644,2.1,2.1,0,0,1,.539,1.637c0,.071,0,.236-.011.5a17.4,17.4,0,0,1-3.39.655,13.387,13.387,0,0,0-1.69.285,4.679,4.679,0,0,0-1.373.623,3.167,3.167,0,0,0-.983,1.1,3.081,3.081,0,0,0-.369,1.5A3,3,0,0,0,543,24.468a4.092,4.092,0,0,0,2.842.9,5.821,5.821,0,0,0,2.091-.37,7.024,7.024,0,0,0,2.038-1.267Zm-.158-4.246v.7a4.593,4.593,0,0,1-.306,1.9,2.992,2.992,0,0,1-1.257,1.321,3.964,3.964,0,0,1-1.954.475,2.5,2.5,0,0,1-1.69-.507,1.627,1.627,0,0,1-.57-1.268,1.594,1.594,0,0,1,.264-.9,1.642,1.642,0,0,1,.75-.624,7.227,7.227,0,0,1,1.658-.38,13.92,13.92,0,0,0,3.1-.718Zm-109.39,5.63h1.9V19.24a7.412,7.412,0,0,1,.317-2.218,2,2,0,0,1,.708-1.035,1.79,1.79,0,0,1,1.119-.38,2.713,2.713,0,0,1,1.394.412l.655-1.764a3.7,3.7,0,0,0-1.954-.613,2.139,2.139,0,0,0-1.225.38,4.684,4.684,0,0,0-1.2,1.574V13.9h-1.711V25.113Zm48.346,0h1.9v-5.82a6.963,6.963,0,0,1,.306-2.345,2.41,2.41,0,0,1,.982-1.236,2.8,2.8,0,0,1,1.489-.422,1.757,1.757,0,0,1,1.521.634,3.2,3.2,0,0,1,.465,1.9v7.288h1.9V18.6a3.446,3.446,0,0,1,.782-2.514,2.646,2.646,0,0,1,1.965-.792,2.094,2.094,0,0,1,1.14.306,1.562,1.562,0,0,1,.666.813,5.04,5.04,0,0,1,.19,1.638v7.066h1.89v-7.7a3.93,3.93,0,0,0-.9-2.841,3.4,3.4,0,0,0-2.567-.93,4.026,4.026,0,0,0-3.464,1.965,2.761,2.761,0,0,0-1.131-1.447,3.661,3.661,0,0,0-2.038-.518,3.986,3.986,0,0,0-3.4,1.827V13.9h-1.7V25.113Z" fill="#fff" fill-rule="evenodd"/>
  <g id="Group_50" data-name="Group 50">
    <path id="Path_1400" data-name="Path 1400" d="M46.148,8.314v6.07h3.929A3.41,3.41,0,0,0,52.5,13.6a3,3,0,0,0,.842-2.3A2.808,2.808,0,0,0,52.5,9.016a3.747,3.747,0,0,0-2.455-.7h-3.9Zm7.3,19.509-5.193-9.439h-2.1v9.439H41.095V3.963h9.579a10.1,10.1,0,0,1,4.246.824,6.057,6.057,0,0,1,2.737,2.4,7.237,7.237,0,0,1,.947,3.79,6.8,6.8,0,0,1-1.386,4.351,7.308,7.308,0,0,1-3.948,2.456l5.79,10.035H53.446Z" fill="#fff"/>
    <path id="Path_1401" data-name="Path 1401" d="M71.657,23.331a4.224,4.224,0,0,0,1.491-1.841,7.132,7.132,0,0,0,.544-2.93,7.141,7.141,0,0,0-.544-2.931,4.23,4.23,0,0,0-1.491-1.841,3.834,3.834,0,0,0-2.176-.632,3.914,3.914,0,0,0-2.193.632A4.07,4.07,0,0,0,65.8,15.629a7.337,7.337,0,0,0-.527,2.931,7.329,7.329,0,0,0,.527,2.93,4.065,4.065,0,0,0,1.491,1.841,3.906,3.906,0,0,0,2.193.632,3.826,3.826,0,0,0,2.176-.632m1.895-14.07h4.807V27.823H73.552v-2.21a6.439,6.439,0,0,1-2.316,1.981,6.82,6.82,0,0,1-3.158.72,6.956,6.956,0,0,1-4.071-1.245,8.212,8.212,0,0,1-2.789-3.474,12.163,12.163,0,0,1-1-5.035,12.259,12.259,0,0,1,1-5.071,8.215,8.215,0,0,1,2.789-3.473A6.957,6.957,0,0,1,68.078,8.77a6.707,6.707,0,0,1,3.158.736,6.623,6.623,0,0,1,2.316,2V9.261Z" fill="#fff"/>
    <path id="Path_1402" data-name="Path 1402" d="M87.271,27.823H82.464V9.261h4.807Zm-4.4-21.948a2.777,2.777,0,0,1-.79-2.053,2.778,2.778,0,0,1,.79-2.052A2.773,2.773,0,0,1,84.92.98a2.716,2.716,0,0,1,2.035.79,2.814,2.814,0,0,1,.772,2.052,2.813,2.813,0,0,1-.772,2.053,2.716,2.716,0,0,1-2.035.79,2.773,2.773,0,0,1-2.053-.79" fill="#fff"/>
    <path id="Path_1403" data-name="Path 1403" d="M97.551,9.261h5.088v4.211H97.551V27.823H92.744V13.472H89.586V9.261h3.158V8.138A6.029,6.029,0,0,1,94.5,3.471a6.834,6.834,0,0,1,4.808-1.613,10.582,10.582,0,0,1,2.14.21,10.244,10.244,0,0,1,1.859.562l-1.228,3.684a5.44,5.44,0,0,0-2.07-.386,2.525,2.525,0,0,0-1.877.6,2.531,2.531,0,0,0-.579,1.824Z" fill="#fff"/>
    <path id="Path_1404" data-name="Path 1404" d="M109.832,9.261h5.087v4.211h-5.087V27.823h-4.807V13.472h-3.159V9.261h3.159V8.138a6.026,6.026,0,0,1,1.754-4.667,6.831,6.831,0,0,1,4.807-1.613,10.568,10.568,0,0,1,2.14.21,10.255,10.255,0,0,1,1.86.562l-1.228,3.684a5.444,5.444,0,0,0-2.07-.386,2.528,2.528,0,0,0-1.878.6,2.535,2.535,0,0,0-.578,1.824Z" fill="#fff"/>
    <path id="Path_1405" data-name="Path 1405" d="M121.1,16.945h7.684a4.926,4.926,0,0,0-1.157-3.087,3.536,3.536,0,0,0-2.667-1.018q-3.369,0-3.86,4.1m12.526,3.3H121.1a4.508,4.508,0,0,0,1.368,3.052,5,5,0,0,0,3.3.948,8.554,8.554,0,0,0,2.79-.438,6.794,6.794,0,0,0,2.227-1.246l2.071,3.3a9.889,9.889,0,0,1-3.263,1.824,12.372,12.372,0,0,1-4,.632,10.926,10.926,0,0,1-5.193-1.157,7.8,7.8,0,0,1-3.315-3.334,10.963,10.963,0,0,1-1.141-5.158,11.459,11.459,0,0,1,1.123-5.193A8.247,8.247,0,0,1,120.236,10,8.94,8.94,0,0,1,124.92,8.77a8.684,8.684,0,0,1,4.6,1.193,7.891,7.891,0,0,1,3.035,3.4,11.787,11.787,0,0,1,1.07,5.193v1.684Z" fill="#fff"/>
    <path id="Path_1406" data-name="Path 1406" d="M141.375,27.823h-4.807V9.261h4.807Zm-4.4-21.948a2.777,2.777,0,0,1-.789-2.053,2.777,2.777,0,0,1,.789-2.052,2.773,2.773,0,0,1,2.053-.79,2.716,2.716,0,0,1,2.035.79,2.814,2.814,0,0,1,.772,2.052,2.813,2.813,0,0,1-.772,2.053,2.716,2.716,0,0,1-2.035.79,2.773,2.773,0,0,1-2.053-.79" fill="#fff"/>
    <path id="Path_1407" data-name="Path 1407" d="M147.515,27.7a8.39,8.39,0,0,1-3.333-1.914l2.246-3.437a7.336,7.336,0,0,0,5.263,1.964,4.133,4.133,0,0,0,2.123-.439,1.508,1.508,0,0,0,.07-2.525,7.26,7.26,0,0,0-2.369-.9,21.806,21.806,0,0,1-3.631-1.088,5.735,5.735,0,0,1-2.3-1.684,4.389,4.389,0,0,1-.878-2.843,5.53,5.53,0,0,1,.948-3.228,6.028,6.028,0,0,1,2.7-2.106,10.473,10.473,0,0,1,4.071-.736,12.313,12.313,0,0,1,4.017.632,8.523,8.523,0,0,1,3.141,1.859l-2.246,3.3a6.366,6.366,0,0,0-2.246-1.334,8.09,8.09,0,0,0-2.7-.456,3.981,3.981,0,0,0-2.035.422,1.375,1.375,0,0,0-.7,1.263,1.189,1.189,0,0,0,.3.824,2.981,2.981,0,0,0,1.035.649,13.057,13.057,0,0,0,2.106.632,17.81,17.81,0,0,1,3.263,1.087,5.834,5.834,0,0,1,2.245,1.789,4.745,4.745,0,0,1,.878,2.948,5.393,5.393,0,0,1-.913,3.123,5.88,5.88,0,0,1-2.666,2.07,10.843,10.843,0,0,1-4.211.737,13.966,13.966,0,0,1-4.176-.613" fill="#fff"/>
    <path id="Path_1408" data-name="Path 1408" d="M166.6,16.945h7.684a4.926,4.926,0,0,0-1.157-3.087,3.536,3.536,0,0,0-2.667-1.018q-3.369,0-3.86,4.1m12.526,3.3H166.6a4.508,4.508,0,0,0,1.368,3.052,5,5,0,0,0,3.3.948,8.544,8.544,0,0,0,2.789-.438,6.789,6.789,0,0,0,2.228-1.246l2.07,3.3a9.874,9.874,0,0,1-3.262,1.824,12.372,12.372,0,0,1-4,.632,10.923,10.923,0,0,1-5.193-1.157,7.787,7.787,0,0,1-3.315-3.334,10.963,10.963,0,0,1-1.141-5.158,11.459,11.459,0,0,1,1.123-5.193A8.245,8.245,0,0,1,165.743,10a8.946,8.946,0,0,1,4.685-1.228,8.684,8.684,0,0,1,4.6,1.193,7.891,7.891,0,0,1,3.035,3.4,11.8,11.8,0,0,1,1.07,5.193v1.684Z" fill="#fff"/>
    <path id="Path_1409" data-name="Path 1409" d="M195.883,9.63a5.713,5.713,0,0,1,2.3,2.508,8.951,8.951,0,0,1,.807,3.966V27.823h-4.843V16.7a3.838,3.838,0,0,0-.824-2.684,3.253,3.253,0,0,0-2.509-.9,4.361,4.361,0,0,0-2.228.561,5.2,5.2,0,0,0-1.7,1.685V27.823h-4.807V9.261h4.807v2.176a5.95,5.95,0,0,1,2.3-1.965,7.081,7.081,0,0,1,3.175-.7,6.939,6.939,0,0,1,3.526.86" fill="#fff"/>
    <path id="Path_1410" data-name="Path 1410" d="M216.954,23.542a3.737,3.737,0,0,0,2.474-.7,2.8,2.8,0,0,0,.825-2.245,2.717,2.717,0,0,0-.79-2.14,3.905,3.905,0,0,0-2.614-.7h-3.825v5.79h3.93Zm-3.93-15.3v5.579h3.3a3.392,3.392,0,0,0,2.368-.7,2.69,2.69,0,0,0,.754-2.071,2.617,2.617,0,0,0-.806-2.157,3.819,3.819,0,0,0-2.422-.649Zm11.509,9.211a6.061,6.061,0,0,1,1.018,3.561,6.243,6.243,0,0,1-2.088,5.035,8.879,8.879,0,0,1-5.912,1.772h-9.579V3.963h8.737a9.27,9.27,0,0,1,5.859,1.631,5.537,5.537,0,0,1,2.07,4.615,5.28,5.28,0,0,1-3.052,5.087,5.955,5.955,0,0,1,2.947,2.159" fill="#fff"/>
    <path id="Path_1411" data-name="Path 1411" d="M238.849,23.331a4.224,4.224,0,0,0,1.491-1.841,7.132,7.132,0,0,0,.544-2.93,7.141,7.141,0,0,0-.544-2.931,4.23,4.23,0,0,0-1.491-1.841,3.834,3.834,0,0,0-2.176-.632,3.914,3.914,0,0,0-2.193.632,4.07,4.07,0,0,0-1.491,1.841,7.337,7.337,0,0,0-.527,2.931,7.329,7.329,0,0,0,.527,2.93,4.065,4.065,0,0,0,1.491,1.841,3.906,3.906,0,0,0,2.193.632,3.826,3.826,0,0,0,2.176-.632m1.9-14.07h4.807V27.823h-4.807v-2.21a6.439,6.439,0,0,1-2.316,1.981,6.82,6.82,0,0,1-3.158.72,6.951,6.951,0,0,1-4.07-1.245,8.207,8.207,0,0,1-2.79-3.474,12.163,12.163,0,0,1-1-5.035,12.259,12.259,0,0,1,1-5.071,8.21,8.21,0,0,1,2.79-3.473,6.952,6.952,0,0,1,4.07-1.246,6.707,6.707,0,0,1,3.158.736,6.623,6.623,0,0,1,2.316,2V9.261Z" fill="#fff"/>
    <path id="Path_1412" data-name="Path 1412" d="M263.463,9.63a5.705,5.705,0,0,1,2.3,2.508,8.951,8.951,0,0,1,.807,3.966V27.823h-4.842V16.7a3.838,3.838,0,0,0-.825-2.684,3.251,3.251,0,0,0-2.509-.9,4.363,4.363,0,0,0-2.228.561,5.185,5.185,0,0,0-1.7,1.685V27.823h-4.807V9.261h4.807v2.176a5.947,5.947,0,0,1,2.3-1.965,7.085,7.085,0,0,1,3.176-.7,6.944,6.944,0,0,1,3.526.86" fill="#fff"/>
    <path id="Path_1413" data-name="Path 1413" d="M279.76,17.928l7.439,9.9h-5.755l-6.35-8.421v8.421h-4.808V2.559h4.808V16.805l6.035-7.544h5.719l-7.088,8.667Z" fill="#fff"/>
    <path id="Path_1414" data-name="Path 1414" d="M6.748,12.926,1.431,7.609.009,9.032,0,9.023A9.514,9.514,0,0,1,2.792,2.511a4.537,4.537,0,0,1,6.626-.17h0l5.121,5.121L13.27,8.73l2.786,2.786L18.842,8.73,17.574,7.462l5.121-5.121h0a4.537,4.537,0,0,1,6.626.17,9.514,9.514,0,0,1,2.792,6.512l-.008.009L30.681,7.609l-5.317,5.317L23.9,11.462V7.96L22.614,9.245a.754.754,0,0,0-.22.533V13.7l-2.076,2.075L31.084,26.544,26.822,30.8,16.056,20.039,5.29,30.8,1.028,26.544,11.794,15.777,9.718,13.7V9.778a.754.754,0,0,0-.22-.533L8.212,7.96v3.5L6.748,12.926Z" fill="#fff" fill-rule="evenodd"/>
  </g>
</svg>
