<svg id="Triplast" xmlns="http://www.w3.org/2000/svg" width="183.338" height="44.984" viewBox="0 0 183.338 44.984">
  <path id="SPLINE" d="M14.943,36.352H5.388V14.157H0V5.531H20.315v8.626H14.943V36.352Z" transform="translate(0 -2.339)" fill="#fff" fill-rule="evenodd"/>
  <path id="SPLINE1" d="M44.242,42.492H35.77V20.615h8.109v2.852a7.424,7.424,0,0,1,6.316-3.417H51.64v7.97a12.393,12.393,0,0,0-1.314-.109,7.248,7.248,0,0,0-3.231.773,4.629,4.629,0,0,0-2.4,2.783,11.172,11.172,0,0,0-.456,3.641Z" transform="translate(-15.126 -8.479)" fill="#fff" fill-rule="evenodd"/>
  <rect id="SPLINE2" width="8.472" height="21.877" transform="translate(37.562 12.137)" fill="#fff"/>
  <path id="SPLINE3" d="M68.7,0a4.876,4.876,0,0,1,3.579,1.492A4.983,4.983,0,0,1,73.82,5.187a4.862,4.862,0,0,1-1.469,3.579A4.891,4.891,0,0,1,68.7,10.3a5.007,5.007,0,0,1-3.649-1.492,4.957,4.957,0,0,1-1.538-3.672,4.921,4.921,0,0,1,1.492-3.649A5.112,5.112,0,0,1,68.7,0Z" transform="translate(-26.859)" fill="#fff" fill-rule="evenodd"/>
  <path id="SPLINE4" d="M84.016,51.135V31.748a11.857,11.857,0,0,1,2.968-8.31,11.41,11.41,0,0,1,8.828-3.9,11.794,11.794,0,0,1,12.044,11.82,12,12,0,0,1-.873,4.46,11.869,11.869,0,0,1-2.412,3.834,10.464,10.464,0,0,1-7.877,3.394,8.017,8.017,0,0,1-2.922-.611V33.989a4.456,4.456,0,0,0,2.149.588,3.053,3.053,0,0,0,2.219-.859,3.239,3.239,0,0,0,.951-2.427,3.407,3.407,0,0,0-.588-2.056,2.981,2.981,0,0,0-2.574-1.222,3.052,3.052,0,0,0-2.984,1.855,7.782,7.782,0,0,0-.457,3.147v18.12H84.016Z" transform="translate(-35.527 -8.264)" fill="#fff" fill-rule="evenodd"/>
  <rect id="SPLINE5" width="8.472" height="30.821" transform="translate(74.065 3.192)" fill="#fff"/>
  <path id="SPLINE6" d="M169.848,42.276h-8.472V32.452a5.568,5.568,0,0,0-.657-3.077A3.053,3.053,0,0,0,158,28.014a3.177,3.177,0,0,0-2.2.836,2.979,2.979,0,0,0-1.02,2.334,3.172,3.172,0,0,0,.927,2.335,3.006,3.006,0,0,0,2.173.881,5.172,5.172,0,0,0,2.11-.455v8.333a5.363,5.363,0,0,1-3.038.773,10.277,10.277,0,0,1-8.179-3.942,11.589,11.589,0,0,1-2.783-7.7,11.255,11.255,0,0,1,3.742-8.7,11.882,11.882,0,0,1,8.31-3.17,11.27,11.27,0,0,1,9.129,4.189,12.285,12.285,0,0,1,2.675,8.1V42.276Z" transform="translate(-61.735 -8.264)" fill="#fff" fill-rule="evenodd"/>
  <path id="SPLINE7" d="M191.415,42.905V35.724h4.707q.951,0,1.159-.023a.826.826,0,0,0,.835-.9c0-.487-.495-.982-1.492-1.492l-.618-.317a14.572,14.572,0,0,1-3.193-2.063,5.072,5.072,0,0,1-1.516-3.85,5.559,5.559,0,0,1,1.948-4.437c1.237-1.075,3.108-1.608,5.6-1.608h8.334v6.926h-4.554c-.9,0-1.36.24-1.36.727,0,.363.333.719,1,1.059l.634.324a16.541,16.541,0,0,1,3.061,1.986,5.966,5.966,0,0,1,2.1,4.646,6.507,6.507,0,0,1-.634,2.822,5.527,5.527,0,0,1-1.723,2.142,6.193,6.193,0,0,1-2.783,1.151,26.52,26.52,0,0,1-2.876.093h-8.626Z" transform="translate(-80.893 -8.892)" fill="#fff" fill-rule="evenodd"/>
  <path id="SPLINE8" d="M232.829,23.143v4.189a3.324,3.324,0,0,0,.7,2.4,3.526,3.526,0,0,0,2.327.564h1.747v7.36h-2.969q-10.552.453-10.281-9.191V8.626h8.472v7.158h4.778v7.359Z" transform="translate(-94.87 -3.648)" fill="#fff" fill-rule="evenodd"/>
  <path id="SPLINE9" d="M268.3,14.216l-2.287-4.759-1.241,16.288,14.416-7.629-5.792-.31c9.767-9.6,20.664-4.4,21.9,4.038-1.176-15.913-19.179-16.154-27-7.629Z" transform="translate(-111.964 -3.647)" fill="#fff" fill-rule="evenodd"/>
  <path id="SPLINE10" d="M284.732,38.724l2.287,4.759,1.241-16.288-14.415,7.628,5.791.31c-9.767,9.605-20.664,4.4-21.9-4.038,1.176,15.913,19.179,16.153,27,7.629Z" transform="translate(-108.986 -11.5)" fill="#fff" fill-rule="evenodd"/>
  <path id="SPLINE11" d="M129.038,70.952l-1.591-5.022h1.292l.941,3.292.865-3.292h1.282l.838,3.292.961-3.292h1.31l-1.613,5.022h-1.277l-.865-3.23-.851,3.23h-1.292Z" transform="translate(-53.893 -27.88)" fill="#fff" fill-rule="evenodd"/>
  <path id="SPLINE12" d="M142.093,70.952,140.5,65.93h1.292l.941,3.292.866-3.292h1.282l.837,3.292.962-3.292h1.309l-1.613,5.022H145.1l-.865-3.23-.851,3.23Z" transform="translate(-59.413 -27.88)" fill="#fff" fill-rule="evenodd"/>
  <path id="SPLINE13" d="M155.149,70.952l-1.591-5.022h1.292l.941,3.292.866-3.292h1.282l.837,3.292.961-3.292h1.309l-1.613,5.022h-1.277l-.866-3.23-.851,3.23Z" transform="translate(-64.934 -27.88)" fill="#fff" fill-rule="evenodd"/>
  <rect id="SPLINE14" width="1.329" height="1.329" transform="translate(96.452 41.744)" fill="#fff"/>
  <path id="SPLINE15" d="M173.686,64.63v1.059h-.907v2.025a4.958,4.958,0,0,0,.026.717.3.3,0,0,0,.118.168.378.378,0,0,0,.225.066,1.765,1.765,0,0,0,.536-.128l.113,1.03a2.649,2.649,0,0,1-1.05.2,1.686,1.686,0,0,1-.648-.119.952.952,0,0,1-.423-.313,1.238,1.238,0,0,1-.188-.518,6.554,6.554,0,0,1-.042-.936v-2.19h-.61V64.63h.61v-1l1.334-.775V64.63h.907Z" transform="translate(-72.24 -26.579)" fill="#fff" fill-rule="evenodd"/>
  <path id="SPLINE16" d="M178.606,70.869h-1.329V65.846h1.233v.714a2.147,2.147,0,0,1,.57-.667,1.052,1.052,0,0,1,.575-.162,1.686,1.686,0,0,1,.875.252l-.411,1.158a1.171,1.171,0,0,0-.623-.216.727.727,0,0,0-.473.154,1.037,1.037,0,0,0-.3.555,7.871,7.871,0,0,0-.111,1.684v1.551Z" transform="translate(-74.964 -27.796)" fill="#fff" fill-rule="evenodd"/>
  <rect id="SPLINE17" width="1.329" height="1.23" transform="translate(106.139 36.139)" fill="#fff"/>
  <rect id="SPLINE18" width="1.329" height="5.022" transform="translate(106.139 38.05)" fill="#fff"/>
  <path id="SPLINE19" d="M188.5,65.846h1.239v.738a1.828,1.828,0,0,1,.653-.615,1.8,1.8,0,0,1,.914-.237,1.91,1.91,0,0,1,1.483.686,2.775,2.775,0,0,1,.611,1.911,2.866,2.866,0,0,1-.613,1.955,1.917,1.917,0,0,1-1.49.7,1.709,1.709,0,0,1-.755-.164,2.6,2.6,0,0,1-.712-.568V72.78H188.5V65.846Zm1.315,2.427a1.923,1.923,0,0,0,.336,1.249,1.022,1.022,0,0,0,.818.406.961.961,0,0,0,.77-.372,1.913,1.913,0,0,0,.308-1.217,1.813,1.813,0,0,0-.318-1.173.98.98,0,0,0-.785-.383,1.018,1.018,0,0,0-.809.376,1.675,1.675,0,0,0-.321,1.114Z" transform="translate(-79.712 -27.796)" fill="#fff" fill-rule="evenodd"/>
  <rect id="SPLINE20" width="1.329" height="6.934" transform="translate(114.748 36.139)" fill="#fff"/>
  <path id="SPLINE21" d="M204.222,67.379l-1.206-.218a1.881,1.881,0,0,1,.7-1.078,2.57,2.57,0,0,1,1.476-.35,3.171,3.171,0,0,1,1.325.211,1.318,1.318,0,0,1,.612.534,2.737,2.737,0,0,1,.178,1.189l-.014,1.552a5.315,5.315,0,0,0,.065.977,2.843,2.843,0,0,0,.239.672h-1.316c-.033-.088-.077-.219-.128-.392-.021-.079-.037-.13-.047-.156a2.421,2.421,0,0,1-.728.5,2.1,2.1,0,0,1-.828.164,1.714,1.714,0,0,1-1.222-.42,1.4,1.4,0,0,1-.447-1.065,1.432,1.432,0,0,1,.2-.76,1.319,1.319,0,0,1,.57-.51,4.478,4.478,0,0,1,1.057-.309,7.262,7.262,0,0,0,1.29-.327v-.132a.693.693,0,0,0-.189-.548,1.138,1.138,0,0,0-.713-.163.943.943,0,0,0-.554.141.965.965,0,0,0-.321.489ZM206,68.457a8.317,8.317,0,0,1-.809.2,2.517,2.517,0,0,0-.724.23.561.561,0,0,0-.26.469.65.65,0,0,0,.208.483.725.725,0,0,0,.529.2,1.157,1.157,0,0,0,.687-.236.829.829,0,0,0,.316-.441,2.564,2.564,0,0,0,.051-.646v-.265Z" transform="translate(-85.791 -27.796)" fill="#fff" fill-rule="evenodd"/>
  <path id="SPLINE22" d="M212.01,69.435l1.334-.2a.969.969,0,0,0,.345.59,1.168,1.168,0,0,0,.728.2,1.306,1.306,0,0,0,.775-.19.42.42,0,0,0,.175-.354.35.35,0,0,0-.1-.252,1.068,1.068,0,0,0-.444-.174,7.175,7.175,0,0,1-2.038-.648,1.3,1.3,0,0,1-.6-1.132,1.391,1.391,0,0,1,.515-1.1,2.4,2.4,0,0,1,1.6-.445,2.809,2.809,0,0,1,1.534.335,1.714,1.714,0,0,1,.689.995l-1.252.231a.771.771,0,0,0-.305-.449,1.109,1.109,0,0,0-.641-.156,1.445,1.445,0,0,0-.753.147.318.318,0,0,0-.15.27.29.29,0,0,0,.133.241,4.957,4.957,0,0,0,1.241.375,3.669,3.669,0,0,1,1.482.591,1.23,1.23,0,0,1,.417.988,1.515,1.515,0,0,1-.578,1.188,2.55,2.55,0,0,1-1.706.5,2.811,2.811,0,0,1-1.626-.416,1.913,1.913,0,0,1-.781-1.131Z" transform="translate(-89.652 -27.796)" fill="#fff" fill-rule="evenodd"/>
  <path id="SPLINE23" d="M224.057,64.63v1.059h-.907v2.025a5.149,5.149,0,0,0,.025.717.3.3,0,0,0,.119.168.375.375,0,0,0,.224.066,1.762,1.762,0,0,0,.536-.128l.113,1.03a2.647,2.647,0,0,1-1.05.2,1.691,1.691,0,0,1-.648-.119.957.957,0,0,1-.422-.313,1.23,1.23,0,0,1-.187-.518,6.527,6.527,0,0,1-.043-.936v-2.19h-.61V64.63h.61v-1l1.334-.775V64.63h.907Z" transform="translate(-93.54 -26.579)" fill="#fff" fill-rule="evenodd"/>
  <rect id="SPLINE24" width="1.329" height="1.329" transform="translate(131.439 41.744)" fill="#fff"/>
  <path id="SPLINE25" d="M233.64,70.869h-1.329V65.846h1.233v.714a2.139,2.139,0,0,1,.57-.667,1.056,1.056,0,0,1,.575-.162,1.682,1.682,0,0,1,.874.252l-.411,1.158a1.17,1.17,0,0,0-.623-.216.729.729,0,0,0-.473.154,1.041,1.041,0,0,0-.305.555,7.922,7.922,0,0,0-.111,1.684v1.551Z" transform="translate(-98.236 -27.796)" fill="#fff" fill-rule="evenodd"/>
  <path id="SPLINE26" d="M238.406,68.286A2.734,2.734,0,0,1,238.732,67a2.245,2.245,0,0,1,.925-.945,2.737,2.737,0,0,1,1.337-.327,2.51,2.51,0,0,1,1.868.74,2.558,2.558,0,0,1,.728,1.871,2.591,2.591,0,0,1-.735,1.89,2.483,2.483,0,0,1-1.852.749,2.91,2.91,0,0,1-1.316-.312,2.141,2.141,0,0,1-.955-.915,3.061,3.061,0,0,1-.326-1.469Zm1.363.071a1.661,1.661,0,0,0,.355,1.144,1.128,1.128,0,0,0,.876.4,1.116,1.116,0,0,0,.871-.4,1.68,1.68,0,0,0,.353-1.154,1.651,1.651,0,0,0-.353-1.135,1.116,1.116,0,0,0-.871-.4,1.127,1.127,0,0,0-.876.4A1.663,1.663,0,0,0,239.769,68.357Z" transform="translate(-100.814 -27.796)" fill="#fff" fill-rule="evenodd"/>
</svg>
